<svg width="1003" height="671" viewBox="0 0 1003 671" fill="none" xmlns="http://www.w3.org/2000/svg">
<path d="M733.375 2.78378H716.811L698.36 4.01961C693.118 4.01961 688.295 5.25542 683.263 5.87336C673.52 7.19106 663.859 9.04824 654.329 11.4352C649.925 11.4352 645.732 13.4949 641.539 14.5248L629.168 18.2323C604.635 25.9643 581.072 36.3986 558.928 49.3356L548.235 55.7209L537.751 62.7242C486.519 27.5855 426.462 6.917 364.109 2.96544C301.756 -0.986118 239.493 11.9306 184.09 40.3114C128.687 68.6921 82.2638 111.451 49.8678 163.939C17.4717 216.426 0.342529 276.634 0.342529 338.017C0.342529 399.4 17.4717 459.608 49.8678 512.096C82.2638 564.584 128.687 607.343 184.09 635.723C239.493 664.104 301.756 677.021 364.109 673.069C426.462 669.118 486.519 648.449 537.751 613.311C544.67 618.254 551.799 622.579 558.718 626.905C565.637 631.23 571.299 633.908 577.798 637.204C580.042 638.615 582.432 639.789 584.927 640.706C591.427 643.795 597.717 646.679 604.427 649.151C612.185 652.241 620.152 654.919 628.329 657.596L640.7 661.304L653.49 664.393C662.995 666.728 672.64 668.582 682.424 669.955L697.521 671.809L715.972 673.045H732.536C778.116 674.154 823.46 666.293 865.9 649.924C908.34 633.555 947.017 609.008 979.653 577.731C1012.29 546.454 1038.23 509.077 1055.93 467.803C1073.64 426.528 1082.77 382.19 1082.77 337.399C1082.77 292.608 1073.64 248.27 1055.93 206.995C1038.23 165.721 1012.29 128.345 979.653 97.0673C947.017 65.79 908.34 41.2439 865.9 24.8748C823.46 8.50567 778.116 0.644789 732.536 1.75413L733.375 2.78378ZM342.127 539.775C310.794 539.795 279.874 532.76 251.739 519.211C223.605 505.663 199.005 485.961 179.828 461.617C160.652 437.274 147.409 408.938 141.116 378.783C134.824 348.629 135.649 317.459 143.528 287.667C151.408 257.874 166.132 230.252 186.57 206.921C207.009 183.59 232.618 165.171 261.431 153.077C290.245 140.983 321.496 135.537 352.785 137.156C384.075 138.776 414.571 147.418 441.931 162.419C437.947 168.804 434.173 175.396 430.609 181.987C426.869 188.665 423.509 195.542 420.545 202.585C417.4 209.177 414.674 215.974 411.948 223.183C406.638 237.581 402.296 252.306 398.949 267.263C397.271 274.472 396.013 281.888 394.965 289.303C394.85 290.467 394.85 291.64 394.965 292.805C394.014 298.672 393.384 304.585 393.078 310.519C392.87 312.298 392.87 314.095 393.078 315.875C393.078 323.084 393.078 330.499 393.078 337.708C393.078 344.918 393.078 352.539 393.078 359.954C392.973 361.532 392.973 363.114 393.078 364.692C393.078 371.489 394.545 378.493 395.384 385.29C396.223 392.087 397.9 400.738 399.577 408.36C402.98 423.303 407.321 438.024 412.577 452.44C420.704 473.336 430.739 493.467 442.56 512.586C412.053 530.061 377.44 539.432 342.127 539.775ZM878.048 480.453C852.152 505.969 819.8 524.242 784.325 533.39C767.583 537.445 750.408 539.519 733.165 539.569H720.166C715.553 539.569 710.94 539.569 706.537 538.333L693.537 536.273L680.747 533.39C676.554 532.36 672.57 531.124 668.377 529.682L656.216 525.563C647.701 521.982 639.436 517.853 631.474 513.204L624.136 508.878C616.854 504.422 609.852 499.538 603.169 494.254L601.701 492.812C596.878 488.692 592.056 484.573 587.653 480.041C583.25 475.51 579.266 471.596 575.492 466.858C571.279 461.935 567.359 456.776 563.75 451.409C562.161 449.151 560.691 446.814 559.347 444.406C558.553 443.762 557.97 442.902 557.67 441.935C554.518 436.802 551.648 431.508 549.073 426.074C545.763 420.429 543.158 414.412 541.315 408.153C539.911 405.289 538.72 402.329 537.751 399.296C536.832 396.399 536.131 393.438 535.654 390.439C532.372 378.653 530.265 366.58 529.364 354.393C529.364 349.243 529.364 344.3 529.364 339.15C529.364 334.207 529.364 329.469 529.364 324.525C530.32 312.305 532.283 300.181 535.235 288.273C535.235 284.978 536.912 282.094 537.751 279.21C538.758 276.257 539.948 273.368 541.315 270.559C543.156 264.234 545.76 258.148 549.073 252.432C551.647 246.485 554.733 240.766 558.299 235.336C561.541 229.686 565.258 224.311 569.411 219.27C571.508 216.386 574.024 213.502 576.331 210.618C579.688 206.4 583.331 202.409 587.234 198.672L588.701 197.23C592.784 193.121 597.126 189.269 601.701 185.695L603.169 184.253C607.781 180.751 612.394 177.249 617.426 173.954C617.824 173.499 618.327 173.146 618.894 172.924C623.716 169.834 628.749 166.745 633.781 164.067C640.089 160.35 646.678 157.114 653.49 154.386L662.925 150.678L672.57 147.588L680.957 145.116L693.747 142.232L706.747 140.173C711.15 140.173 715.762 139.143 720.375 138.937H733.375C773.815 138.948 813.346 150.73 846.975 172.795C880.604 194.86 906.825 226.22 922.327 262.913C937.828 299.607 941.915 339.991 934.072 378.965C926.228 417.939 906.807 453.756 878.258 481.895L878.048 480.453Z" fill="#EEEEEE" fill-opacity="0.05"/>
<path d="M733.379 2.78084H716.815L698.364 4.01667C693.122 4.01667 688.299 5.25247 683.267 5.87041C673.524 7.18811 663.863 9.04529 654.333 11.4323C649.93 11.4323 645.736 13.492 641.543 14.5219L629.172 18.2294C604.639 25.9613 581.076 36.3956 558.932 49.3326L548.239 55.7179L537.755 62.7211C499.324 89.061 466.787 122.848 442.145 162.004C434.44 175.02 427.441 188.427 421.178 202.169C418.033 208.761 415.307 215.558 412.581 222.768C407.271 237.166 402.929 251.891 399.582 266.848C397.904 274.057 396.646 281.472 395.598 288.888C395.483 290.052 395.483 291.224 395.598 292.389C394.647 298.256 394.018 304.17 393.711 310.104C393.503 311.883 393.503 313.679 393.711 315.459C393.711 322.668 393.711 330.083 393.711 337.292C393.711 344.502 393.711 352.123 393.711 359.539C393.606 361.116 393.606 362.698 393.711 364.276C393.711 371.073 395.179 378.076 396.017 384.874C396.856 391.671 398.533 400.323 400.211 407.944C403.418 422.935 407.763 437.67 413.21 452.024C421.131 473.037 431.102 493.248 442.984 512.376C467.484 551.628 499.961 585.496 538.384 611.864C545.513 616.602 552.642 621.339 559.351 625.253C566.061 629.167 571.932 632.256 578.432 635.552C580.675 636.963 583.065 638.137 585.56 639.054C592.06 642.144 598.35 645.027 605.06 647.499C612.818 650.588 620.785 653.266 628.962 655.944L641.333 659.652L654.123 662.742C663.628 665.076 673.273 666.93 683.058 668.303L698.154 670.156L716.605 671.392H733.169C778.749 672.502 824.094 664.641 866.533 648.272C908.973 631.903 947.65 607.357 980.286 576.079C1012.92 544.802 1038.86 507.426 1056.57 466.151C1074.28 424.877 1083.4 380.539 1083.4 335.748C1083.4 290.957 1074.28 246.619 1056.57 205.345C1038.86 164.07 1012.92 126.694 980.286 95.4166C947.65 64.1393 908.973 39.5933 866.533 23.2242C824.094 6.85516 778.749 -1.00634 733.169 0.102995L733.379 2.78084ZM878.262 480.449C852.366 505.965 820.014 524.238 784.539 533.386C767.797 537.441 750.622 539.515 733.379 539.565H720.379C715.766 539.565 711.154 539.565 706.751 538.329L693.751 536.269L680.961 533.386C676.767 532.356 672.784 531.12 668.59 529.678L656.429 525.559C647.915 521.978 639.65 517.849 631.688 513.2L624.35 508.874C617.068 504.418 610.066 499.534 603.382 494.25L601.915 492.808C597.092 488.688 592.27 484.569 587.867 480.037C583.464 475.506 579.48 471.592 575.706 466.854C571.493 461.931 567.572 456.773 563.964 451.406C562.375 449.147 560.905 446.81 559.561 444.402C558.767 443.758 558.183 442.899 557.884 441.931C554.739 436.781 552.013 431.631 549.287 426.07C546.274 420.284 543.681 414.296 541.529 408.15C539.203 402.389 537.311 396.469 535.868 390.436C532.586 378.649 530.479 366.577 529.578 354.389C529.578 349.24 529.578 344.296 529.578 339.147C529.578 334.203 529.578 329.465 529.578 324.522C530.534 312.301 532.497 300.178 535.449 288.27C537.336 282.09 539.223 276.323 541.529 270.555C543.643 264.328 546.236 258.268 549.287 252.429C555.013 240.65 562.044 229.529 570.254 219.266C572.351 216.382 574.867 213.498 577.174 210.615C580.531 206.397 584.174 202.406 588.076 198.668L589.544 197.226C593.627 193.118 597.969 189.265 602.544 185.691L604.011 184.249C608.624 180.748 613.237 177.246 618.269 173.95C618.666 173.496 619.17 173.142 619.737 172.921C624.559 169.831 629.591 166.741 634.623 164.064C640.932 160.347 647.521 157.11 654.333 154.383L663.768 150.674L673.413 147.585L681.8 145.113L694.59 142.229L707.589 140.17C711.992 140.17 716.605 139.14 721.218 138.934H734.217C774.658 138.945 814.188 150.727 847.818 172.792C881.447 194.857 907.668 226.216 923.169 262.91C938.671 299.604 942.758 339.987 934.914 378.961C927.071 417.935 907.649 453.753 879.101 481.891L878.262 480.449Z" fill="#F7F7F7" fill-opacity="0.05"/>
</svg>
