<svg width="20" height="20" viewBox="0 0 20 20" fill="none" xmlns="http://www.w3.org/2000/svg">
<path d="M5.27131 10.652H7.46363V19.6774C7.46363 19.8556 7.60802 20 7.78621 20H11.5034C11.6816 20 11.826 19.8556 11.826 19.6774V10.6945H14.3462C14.5101 10.6945 14.648 10.5715 14.6667 10.4088L15.0494 7.08606C15.06 6.99465 15.031 6.9031 14.9698 6.83452C14.9086 6.76587 14.821 6.72658 14.7291 6.72658H11.8261V4.64374C11.8261 4.01587 12.1641 3.69748 12.831 3.69748C12.926 3.69748 14.7291 3.69748 14.7291 3.69748C14.9072 3.69748 15.0516 3.55303 15.0516 3.3749V0.324968C15.0516 0.146774 14.9072 0.0023871 14.7291 0.0023871H12.1132C12.0948 0.00148387 12.0538 0 11.9934 0C11.5396 0 9.96196 0.0890967 8.71576 1.23555C7.33499 2.506 7.52692 4.02716 7.57279 4.2909V6.72652H5.27131C5.09312 6.72652 4.94873 6.8709 4.94873 7.0491V10.3294C4.94873 10.5075 5.09312 10.652 5.27131 10.652Z" fill="white"/>
</svg>
