<svg width="184" height="36" viewBox="0 0 184 36" fill="none" xmlns="http://www.w3.org/2000/svg">
<g clip-path="url(#clip0_266_1565)">
<path d="M57.9517 33.4009C58.2257 33.5581 58.509 33.6984 58.8001 33.8212C58.5355 33.7044 58.2708 33.5799 58.0217 33.4398L57.9517 33.4009Z" fill="white"/>
<path d="M57.7026 33.2451L57.9517 33.4086L57.7026 33.2451Z" fill="white"/>
<path d="M43.279 12.3063C43.3257 4.88816 48.3075 -0.0468633 55.7334 -0.000159638C61.1821 -0.000159638 65.6579 3.76727 67.0201 9.34058H62.4431C61.9715 7.90414 61.0756 6.64433 59.8736 5.72722C58.6717 4.81011 57.22 4.27875 55.71 4.20317C51.0396 4.20317 47.9261 7.45686 47.9261 12.3763C47.9261 17.2958 50.9696 20.6117 55.6166 20.6429C57.2425 20.6211 58.8146 20.0571 60.0837 19.0405C61.3527 18.0238 62.2461 16.6126 62.6222 15.0306H67.0979C65.9225 20.9153 61.3222 24.8151 55.601 24.7761C48.1674 24.6827 43.2401 19.7244 43.279 12.3063Z" fill="white"/>
<path d="M68.5921 7.00529H72.7565V9.05247C73.2186 8.35301 73.8428 7.77546 74.5759 7.3689C75.3091 6.96235 76.1295 6.73881 76.9676 6.71729C77.5964 6.71852 78.2194 6.8373 78.8046 7.06755V10.259H77.3801C74.609 10.259 72.7565 11.8158 72.7487 14.1509L72.6864 24.4102H68.5298L68.5921 7.00529Z" fill="white"/>
<path d="M78.1896 15.7314C78.1896 10.2827 81.9804 6.59308 87.6316 6.62422C93.2827 6.65535 96.9723 10.3527 96.9723 15.8326V16.611L96.6298 16.9535L82.4085 16.8757C82.5337 18.1451 83.1329 19.3206 84.0867 20.1675C85.0404 21.0145 86.2785 21.4706 87.5537 21.4449C88.5386 21.4584 89.5075 21.1949 90.3498 20.6843C91.1922 20.1736 91.874 19.4365 92.3175 18.557H96.5442C95.9323 20.4479 94.7221 22.0886 93.0962 23.2315C91.4703 24.3744 89.5168 24.9576 87.5304 24.8931C81.8792 24.9009 78.1585 21.2113 78.1896 15.7314ZM92.4888 13.4897C92.116 12.4971 91.4508 11.641 90.5811 11.0345C89.7114 10.4281 88.6782 10.0998 87.618 10.093C86.5577 10.0863 85.5204 10.4014 84.6431 10.9968C83.7657 11.5921 83.0897 12.4397 82.7043 13.4274L92.4888 13.4897Z" fill="white"/>
<path d="M98.0937 15.8404C98.0937 10.3916 101.822 6.70982 107.294 6.74096C109.451 6.7706 111.511 7.63887 113.039 9.16175L113.086 0.80957H117.25L117.118 24.5973H112.953V22.6903C111.405 24.1846 109.337 25.0215 107.185 25.0254C101.713 25.0177 98.047 21.3203 98.0937 15.8404ZM113 15.926C113 12.6334 110.883 10.4383 107.691 10.415C104.5 10.3916 102.243 12.5711 102.243 15.8637C102.243 19.1564 104.368 21.3514 107.621 21.3748C110.875 21.3981 112.984 19.2342 113 15.926Z" fill="white"/>
<path d="M120.441 0.848145H124.598V4.66227H120.433L120.441 0.848145ZM120.402 7.30104H124.566L124.465 24.6826H120.309L120.402 7.30104Z" fill="white"/>
<path d="M129.136 20.2459L129.19 10.8118H126.419V7.34792H129.198V0.89502H133.362L133.323 7.34792H137.698V10.8196H133.331L133.277 20.2537C133.269 20.456 133.305 20.6576 133.382 20.845C133.458 21.0323 133.574 21.201 133.722 21.3397C133.869 21.4784 134.045 21.5838 134.237 21.6489C134.428 21.714 134.632 21.7372 134.833 21.7171H137.846V24.7061C136.899 25.04 135.899 25.1982 134.896 25.1732C131.401 25.1809 129.12 23.196 129.136 20.2459Z" fill="white"/>
<path d="M140.515 0.965332H144.68V4.77946H140.523L140.515 0.965332ZM140.515 7.41044H144.672L144.578 24.7453H140.414L140.515 7.41044Z" fill="white"/>
<path d="M147.521 1.00391H151.686L151.554 24.7917H147.389L147.521 1.00391Z" fill="white"/>
<path d="M154.869 1.04199H159.026V4.85612H154.869V1.04199ZM154.83 7.49489H158.995L158.893 24.8297H154.729L154.83 7.49489Z" fill="white"/>
<path d="M160.754 16.1982C160.754 10.7495 164.413 7.05988 169.822 7.09102C171.932 7.12074 173.945 7.97911 175.427 9.48069V7.60476H179.591L179.49 24.9474H175.333V23.0715C173.836 24.558 171.815 25.3967 169.706 25.4066C164.311 25.3677 160.723 21.6704 160.754 16.1982ZM175.388 16.2761C175.388 12.9835 173.341 10.7884 170.219 10.765C167.098 10.7417 164.934 12.9212 164.919 16.2138C164.903 19.5064 166.997 21.7015 170.157 21.7171C173.317 21.7326 175.365 19.5687 175.388 16.2761Z" fill="white"/>
<path d="M180.393 3.10505C180.39 2.77 180.487 2.44159 180.671 2.16161C180.855 1.88163 181.118 1.66271 181.427 1.53271C181.736 1.4027 182.076 1.36749 182.405 1.43153C182.734 1.49557 183.036 1.65597 183.274 1.89235C183.511 2.12873 183.673 2.43038 183.739 2.75897C183.804 3.08756 183.771 3.42823 183.642 3.73764C183.513 4.04706 183.296 4.31125 183.017 4.49661C182.737 4.68196 182.41 4.78013 182.074 4.7786C181.854 4.78066 181.635 4.73885 181.43 4.65557C181.226 4.5723 181.04 4.44924 180.884 4.29353C180.727 4.13781 180.603 3.95255 180.519 3.74852C180.435 3.5445 180.392 3.32578 180.393 3.10505ZM183.273 3.10505C183.269 2.87089 183.195 2.64327 183.062 2.45068C182.928 2.2581 182.741 2.10909 182.524 2.02229C182.306 1.93549 182.068 1.91476 181.839 1.96269C181.61 2.01062 181.399 2.12509 181.235 2.29176C181.07 2.45844 180.959 2.66994 180.914 2.89979C180.869 3.12964 180.893 3.36765 180.982 3.58404C181.072 3.80044 181.223 3.9856 181.417 4.11639C181.612 4.24717 181.84 4.31777 182.074 4.31935C182.392 4.31731 182.695 4.19036 182.92 3.966C183.144 3.74163 183.271 3.43791 183.273 3.12061V3.10505ZM181.428 2.28775H182.207C182.326 2.28373 182.443 2.3206 182.538 2.39225C182.633 2.46389 182.701 2.56601 182.73 2.68155C182.759 2.7971 182.748 2.91912 182.698 3.02733C182.648 3.13554 182.563 3.22341 182.456 3.2763L182.845 3.89124H182.331L181.973 3.31521H181.903V3.89124H181.436L181.428 2.28775ZM182.207 2.92601C182.238 2.92601 182.267 2.91373 182.289 2.89183C182.311 2.86993 182.324 2.84023 182.324 2.80926C182.324 2.77829 182.311 2.74861 182.289 2.72671C182.267 2.70482 182.238 2.69251 182.207 2.69251H181.888V2.91825L182.207 2.92601Z" fill="white"/>
<path d="M27.2134 0.105303H26.5985L25.9135 0.152004C25.7189 0.152004 25.5399 0.198705 25.3531 0.222057C24.9913 0.271853 24.6327 0.342035 24.2789 0.432239C24.1154 0.432239 23.9597 0.510074 23.8041 0.548993L23.3448 0.689099C22.434 0.981288 21.5593 1.3756 20.7372 1.86448L20.3402 2.10578L19.951 2.37043C18.049 1.04255 15.8195 0.261496 13.5046 0.112168C11.1898 -0.0371606 8.87833 0.450958 6.82153 1.52346C4.76472 2.59596 3.04128 4.2118 1.8386 6.1953C0.635912 8.1788 0 10.454 0 12.7737C0 15.0933 0.635912 17.3686 1.8386 19.3521C3.04128 21.3356 4.76472 22.9514 6.82153 24.0239C8.87833 25.0964 11.1898 25.5845 13.5046 25.4352C15.8195 25.2859 18.049 24.5048 19.951 23.1769C20.2079 23.3637 20.4725 23.5272 20.7294 23.6907C20.9863 23.8541 21.1964 23.9553 21.4377 24.0799C21.521 24.1332 21.6098 24.1775 21.7024 24.2122C21.9437 24.3289 22.1772 24.4379 22.4263 24.5313C22.7143 24.6481 23.0101 24.7493 23.3137 24.8505L23.7729 24.9906L24.2477 25.1073C24.6006 25.1956 24.9587 25.2656 25.3219 25.3175L25.8824 25.3876L26.5674 25.4343H27.1823C28.8744 25.4762 30.5578 25.1791 32.1334 24.5605C33.7089 23.9419 35.1448 23.0144 36.3564 21.8324C37.568 20.6504 38.5309 19.238 39.1883 17.6782C39.8457 16.1185 40.1844 14.443 40.1844 12.7503C40.1844 11.0577 39.8457 9.38216 39.1883 7.8224C38.5309 6.26265 37.568 4.85021 36.3564 3.66825C35.1448 2.48629 33.7089 1.5587 32.1334 0.940115C30.5578 0.321531 28.8744 0.0244709 27.1823 0.0663924L27.2134 0.105303ZM12.6886 20.3981C11.5254 20.3988 10.3774 20.1329 9.33296 19.6209C8.28848 19.1089 7.37522 18.3644 6.66331 17.4445C5.95139 16.5246 5.45975 15.4537 5.22615 14.3142C4.99254 13.1747 5.02317 11.9968 5.31569 10.8709C5.60821 9.7451 6.15484 8.70128 6.91361 7.8196C7.67238 6.93792 8.6231 6.24186 9.69278 5.78484C10.7625 5.32782 11.9226 5.12201 13.0843 5.18321C14.2459 5.2444 15.378 5.57097 16.3937 6.13786C16.2458 6.37916 16.1057 6.62826 15.9734 6.87735C15.8346 7.1297 15.7098 7.38956 15.5998 7.65574C15.483 7.90483 15.3818 8.1617 15.2806 8.43414C15.0835 8.97824 14.9223 9.53468 14.798 10.0999C14.7358 10.3723 14.6891 10.6526 14.6501 10.9328C14.6459 10.9768 14.6459 11.0211 14.6501 11.0651C14.6149 11.2868 14.5915 11.5103 14.5801 11.7345C14.5724 11.8018 14.5724 11.8697 14.5801 11.9369C14.5801 12.2093 14.5801 12.4896 14.5801 12.762C14.5801 13.0344 14.5801 13.3224 14.5801 13.6027C14.5762 13.6623 14.5762 13.7221 14.5801 13.7817C14.5801 14.0386 14.6346 14.3032 14.6657 14.5601C14.6968 14.817 14.7591 15.1439 14.8214 15.4319C14.9477 15.9966 15.1089 16.5529 15.304 17.0977C15.6057 17.8873 15.9782 18.6481 16.4171 19.3706C15.2845 20.031 13.9995 20.3851 12.6886 20.3981ZM32.5844 18.1563C31.623 19.1205 30.4219 19.8111 29.1049 20.1568C28.4834 20.31 27.8458 20.3884 27.2056 20.3903H26.723C26.5518 20.3903 26.3805 20.3903 26.2171 20.3436L25.7345 20.2657L25.2597 20.1568C25.104 20.1178 24.9561 20.0711 24.8004 20.0167L24.3489 19.861C24.0328 19.7256 23.726 19.5696 23.4304 19.3939L23.158 19.2305C22.8877 19.0621 22.6277 18.8775 22.3796 18.6778L22.3251 18.6233C22.1461 18.4676 21.9671 18.312 21.8036 18.1407C21.6401 17.9695 21.4922 17.8216 21.3521 17.6425C21.1957 17.4565 21.0502 17.2616 20.9162 17.0587C20.8572 16.9734 20.8026 16.8851 20.7528 16.7941C20.7233 16.7697 20.7016 16.7373 20.6905 16.7007C20.5735 16.5067 20.4669 16.3067 20.3713 16.1013C20.2484 15.888 20.1517 15.6606 20.0833 15.4241C20.0312 15.3159 19.987 15.204 19.951 15.0894C19.9169 14.9799 19.8909 14.868 19.8732 14.7547C19.7513 14.3093 19.6731 13.8531 19.6396 13.3925C19.6396 13.1979 19.6396 13.0111 19.6396 12.8165C19.6396 12.6297 19.6396 12.4506 19.6396 12.2638C19.6751 11.802 19.748 11.3439 19.8576 10.8939C19.8576 10.7693 19.9199 10.6603 19.951 10.5514C19.9884 10.4398 20.0326 10.3306 20.0833 10.2244C20.1516 9.98543 20.2483 9.75546 20.3713 9.53944C20.4669 9.31471 20.5815 9.09858 20.7138 8.89338C20.8342 8.67986 20.9722 8.47677 21.1264 8.28624C21.2042 8.17726 21.2976 8.06828 21.3833 7.9593C21.5079 7.79991 21.6431 7.64909 21.788 7.50784L21.8425 7.45335C21.9941 7.29809 22.1553 7.15251 22.3251 7.01745L22.3796 6.96296C22.5508 6.83063 22.7221 6.6983 22.9089 6.57376C22.9237 6.55657 22.9424 6.54323 22.9634 6.53485C23.1424 6.41809 23.3292 6.30134 23.5161 6.20015C23.7503 6.05969 23.9949 5.93739 24.2477 5.8343L24.598 5.69417L24.9561 5.57742L25.2674 5.48401L25.7423 5.37503L26.2249 5.29721C26.3883 5.29721 26.5596 5.25829 26.7308 5.2505H27.2134C28.7148 5.25092 30.1823 5.69614 31.4308 6.52998C32.6793 7.36382 33.6527 8.54888 34.2282 9.93553C34.8036 11.3222 34.9554 12.8483 34.6642 14.3211C34.373 15.7939 33.652 17.1474 32.5921 18.2108L32.5844 18.1563Z" fill="white"/>
<path d="M27.2134 0.105087H26.5985L25.9135 0.151789C25.7189 0.151789 25.5399 0.19849 25.3531 0.221842C24.9913 0.271637 24.6327 0.341819 24.2789 0.432024C24.1154 0.432024 23.9597 0.509858 23.8041 0.548778L23.3448 0.688883C22.4341 0.981073 21.5593 1.37538 20.7372 1.86427L20.3402 2.10557L19.951 2.37022C18.5243 3.3656 17.3164 4.64242 16.4015 6.12209C16.1155 6.61397 15.8557 7.12062 15.6231 7.63994C15.5064 7.88903 15.4052 8.1459 15.304 8.41834C15.1069 8.96244 14.9457 9.5189 14.8214 10.0841C14.7591 10.3566 14.7124 10.6368 14.6735 10.917C14.6692 10.961 14.6692 11.0053 14.6735 11.0493C14.6382 11.271 14.6148 11.4945 14.6034 11.7187C14.5957 11.786 14.5957 11.8539 14.6034 11.9211C14.6034 12.1936 14.6034 12.4738 14.6034 12.7462C14.6034 13.0186 14.6034 13.3067 14.6034 13.5869C14.5996 13.6465 14.5996 13.7063 14.6034 13.7659C14.6034 14.0228 14.6579 14.2874 14.6891 14.5443C14.7202 14.8012 14.7825 15.1281 14.8447 15.4161C14.9638 15.9826 15.1251 16.5394 15.3274 17.0819C15.6214 17.876 15.9916 18.6398 16.4327 19.3626C17.3423 20.8459 18.5479 22.1258 19.9744 23.1222C20.239 23.3013 20.5037 23.4803 20.7528 23.6282C21.0018 23.7761 21.2198 23.8928 21.4611 24.0174C21.5444 24.0707 21.6331 24.1151 21.7258 24.1497C21.9671 24.2665 22.2006 24.3754 22.4497 24.4688C22.7377 24.5856 23.0335 24.6868 23.337 24.788L23.7963 24.9281L24.2711 25.0449C24.624 25.1331 24.982 25.2031 25.3453 25.255L25.9057 25.3251L26.5907 25.3718H27.2057C28.8978 25.4137 30.5812 25.1166 32.1567 24.4981C33.7323 23.8795 35.1681 22.9519 36.3797 21.7699C37.5914 20.588 38.5542 19.1755 39.2116 17.6158C39.869 16.056 40.2077 14.3805 40.2077 12.6878C40.2077 10.9952 39.869 9.31968 39.2116 7.75993C38.5542 6.20018 37.5914 4.78773 36.3797 3.60577C35.1681 2.42381 33.7323 1.49622 32.1567 0.877638C30.5812 0.259055 28.8978 -0.0380293 27.2057 0.00389216L27.2134 0.105087ZM32.5921 18.1561C31.6308 19.1203 30.4297 19.8108 29.1127 20.1565C28.4912 20.3098 27.8536 20.3882 27.2134 20.3901H26.7308C26.5596 20.3901 26.3883 20.3901 26.2249 20.3434L25.7423 20.2655L25.2675 20.1565C25.1118 20.1176 24.9639 20.0709 24.8082 20.0164L24.3567 19.8608C24.0406 19.7254 23.7338 19.5694 23.4382 19.3937L23.1658 19.2303C22.8955 19.0618 22.6355 18.8773 22.3874 18.6776L22.3329 18.6231C22.1539 18.4674 21.9748 18.3118 21.8114 18.1405C21.6479 17.9693 21.5 17.8214 21.3599 17.6423C21.2035 17.4563 21.058 17.2613 20.924 17.0585C20.865 16.9732 20.8104 16.8848 20.7605 16.7939C20.7311 16.7695 20.7094 16.737 20.6983 16.7005C20.5815 16.5059 20.4803 16.3113 20.3791 16.1011C20.2673 15.8824 20.171 15.6561 20.0911 15.4239C20.0048 15.2062 19.9345 14.9825 19.881 14.7545C19.7591 14.3091 19.6809 13.8529 19.6474 13.3923C19.6474 13.1977 19.6474 13.0109 19.6474 12.8163C19.6474 12.6295 19.6474 12.4504 19.6474 12.2636C19.6829 11.8018 19.7558 11.3437 19.8654 10.8937C19.9354 10.6601 20.0055 10.4422 20.0911 10.2242C20.1696 9.9889 20.2659 9.75991 20.3791 9.53923C20.5917 9.09412 20.8527 8.67385 21.1575 8.28602C21.2354 8.17705 21.3288 8.06806 21.4144 7.95909C21.5391 7.7997 21.6743 7.64888 21.8192 7.50763L21.8736 7.45314C22.0252 7.29788 22.1864 7.15229 22.3563 7.01724L22.4107 6.96274C22.582 6.83042 22.7532 6.69809 22.9401 6.57355C22.9548 6.55636 22.9735 6.54301 22.9945 6.53464C23.1736 6.41788 23.3604 6.30112 23.5472 6.19993C23.7814 6.05948 24.026 5.93717 24.2789 5.83408L24.6292 5.69396L24.9872 5.5772L25.2986 5.4838L25.7734 5.37481L26.256 5.29699C26.4195 5.29699 26.5907 5.25807 26.762 5.25029H27.2446C28.7459 5.25071 30.2134 5.69593 31.4619 6.52977C32.7104 7.3636 33.6838 8.54866 34.2593 9.93531C34.8348 11.322 34.9865 12.848 34.6953 14.3209C34.4042 15.7937 33.6831 17.1472 32.6233 18.2106L32.5921 18.1561Z" fill="white"/>
<path d="M107.294 6.77979C107.542 6.97948 107.802 7.16403 108.072 7.33244C107.802 7.16403 107.542 6.97948 107.294 6.77979Z" fill="white"/>
<path d="M57.7568 33.9692C56.7961 34.9328 55.5945 35.6209 54.2773 35.9619C55.5938 35.6191 56.7949 34.9312 57.7568 33.9692Z" fill="white"/>
</g>
<defs>
<clipPath id="clip0_266_1565">
<rect width="183.771" height="35.9618" fill="white"/>
</clipPath>
</defs>
</svg>
