<svg width="47" height="47" viewBox="0 0 47 47" fill="none" xmlns="http://www.w3.org/2000/svg">
<path d="M37.0352 44.3815L36.2149 42.9567C35.6732 42.0145 34.8714 41.2564 33.8993 40.7707C31.4394 39.5408 26.5465 37.0947 24.0789 35.8601C23.4505 35.5448 23.0186 34.8949 23.0186 34.1438C23.0186 33.0841 23.8771 32.2256 24.9367 32.2256C25.2452 32.2256 25.5352 32.3008 25.793 32.4274C26.8549 32.9499 30.056 34.4837 30.056 34.4837C30.4588 34.6716 30.8578 34.2174 30.6192 33.843L24.7856 24.5996C24.6383 24.3633 24.5531 24.0848 24.5531 23.7855C24.5531 22.9385 25.2406 22.251 26.0877 22.251C26.6378 22.251 27.1143 22.5425 27.3897 22.9738C28.3933 24.5436 31.4686 29.2109 31.4686 29.2109L36.2548 27.1316C36.6339 26.9667 37.0413 26.8585 37.4541 26.8546C38.783 26.8546 39.9286 27.6725 40.3782 28.8971L44.9074 41.2395" stroke="white" stroke-width="1.53455" stroke-miterlimit="10"/>
<path d="M40.9668 24.814C41.9926 25.5222 42.7921 26.5641 43.2602 27.8409L44.8185 32.0877" stroke="white" stroke-width="1.53455" stroke-miterlimit="10"/>
<path d="M37.5967 23.7856C38.0885 23.7856 38.5634 23.8417 39.0161 23.9491" stroke="white" stroke-width="1.53455" stroke-miterlimit="10"/>
<path d="M28.1416 37.8912L15.2276 40.615C13.9585 40.8828 12.7109 40.0749 12.4416 38.8112L6.18906 9.44983C5.92051 8.18689 6.73153 6.94467 8.00137 6.67766L28.5076 2.35253C29.7767 2.08475 31.0243 2.89269 31.2936 4.15639L36.1926 27.1639" stroke="white" stroke-width="1.53455" stroke-miterlimit="10"/>
<path d="M19.0939 7.47483L9.3457 9.53113L10.5695 15.2857L29.6678 11.2575L28.4424 5.50293L23.8864 6.46433" stroke="white" stroke-width="1.53455" stroke-miterlimit="10"/>
<path d="M22.1388 6.83252L20.8398 7.10644" stroke="white" stroke-width="1.53455" stroke-miterlimit="10"/>
<path d="M23.3477 35.2098L15.1793 36.9324L11.2378 18.4257L30.3361 14.3975L33.32 28.4125" stroke="white" stroke-width="1.53455" stroke-miterlimit="10"/>
<path d="M28.5649 21.3533L31.677 20.6973" stroke="white" stroke-width="1.53455" stroke-miterlimit="10"/>
<path d="M12.5801 24.7256L22.8485 22.5596" stroke="white" stroke-width="1.53455" stroke-miterlimit="10"/>
<path d="M13.8774 30.8182L24.3523 28.6084" stroke="white" stroke-width="1.53455" stroke-miterlimit="10"/>
<path d="M20.9331 32.864L17.5732 17.085" stroke="white" stroke-width="1.53455" stroke-miterlimit="10"/>
<path d="M25.0073 19.8109L24.1318 15.7021" stroke="white" stroke-width="1.53455" stroke-miterlimit="10"/>
<path d="M14.5785 10.7417H13.0439V12.2763H14.5785V10.7417Z" fill="white"/>
<path d="M17.6473 9.97461H16.1128V11.5092H17.6473V9.97461Z" fill="white"/>
<path d="M20.7167 9.20703H19.1821V10.7416H20.7167V9.20703Z" fill="white"/>
<path d="M4.604 32.2256V35.2947" stroke="white" stroke-width="1.53455" stroke-miterlimit="10"/>
<path d="M4.604 38.3638V41.4329" stroke="white" stroke-width="1.53455" stroke-miterlimit="10"/>
<path d="M9.20729 36.8291H6.13818" stroke="white" stroke-width="1.53455" stroke-miterlimit="10"/>
<path d="M3.0691 36.8291H0" stroke="white" stroke-width="1.53455" stroke-miterlimit="10"/>
<path d="M39.8984 1.53467V5.37105" stroke="white" stroke-width="1.53455" stroke-miterlimit="10"/>
<path d="M39.8984 8.43994V12.2763" stroke="white" stroke-width="1.53455" stroke-miterlimit="10"/>
<path d="M45.2695 6.90527H41.4331" stroke="white" stroke-width="1.53455" stroke-miterlimit="10"/>
<path d="M38.3642 6.90527H34.5278" stroke="white" stroke-width="1.53455" stroke-miterlimit="10"/>
</svg>
