<svg width="47" height="47" viewBox="0 0 47 47" fill="none" xmlns="http://www.w3.org/2000/svg">
<path d="M37.0598 30.8831C40.0447 30.8831 42.4644 28.1177 42.4644 24.7064C42.4644 21.2952 40.0447 18.5298 37.0598 18.5298C34.075 18.5298 31.6553 21.2952 31.6553 24.7064C31.6553 28.1177 34.075 30.8831 37.0598 30.8831Z" stroke="#0049FF" stroke-width="1.54416" stroke-miterlimit="10"/>
<path d="M29.3389 45.5524V37.8316C29.3389 35.6999 31.0676 33.9712 33.1993 33.9712H40.9201C43.0518 33.9712 44.7805 35.6999 44.7805 37.8316V45.5524" stroke="#0049FF" stroke-width="1.54416" stroke-miterlimit="10"/>
<path d="M4.63232 26.2505V24.7064C4.63232 23.427 5.66923 22.3901 6.94856 22.3901H11.581C12.8604 22.3901 13.8973 23.427 13.8973 24.7064V26.2505" stroke="#0049FF" stroke-width="1.54416" stroke-miterlimit="10"/>
<path d="M9.26508 19.3017C10.9707 19.3017 12.3534 17.7462 12.3534 15.8274C12.3534 13.9086 10.9707 12.353 9.26508 12.353C7.55945 12.353 6.17676 13.9086 6.17676 15.8274C6.17676 17.7462 7.55945 19.3017 9.26508 19.3017Z" stroke="#0049FF" stroke-width="1.54416" stroke-miterlimit="10"/>
<path d="M34.5195 7.72119H36.2876C37.5669 7.72119 38.6038 8.75809 38.6038 10.0374V16.2141" stroke="#0049FF" stroke-width="1.54416" stroke-miterlimit="10"/>
<path d="M27.0226 35.5161H3.86018C2.58085 35.5161 1.54395 34.4792 1.54395 33.1998V10.0374C1.54395 8.75809 2.58085 7.72119 3.86018 7.72119H16.9855" stroke="#0049FF" stroke-width="1.54416" stroke-miterlimit="10"/>
<path d="M20.8459 31.6553H19.3018V33.1994H20.8459V31.6553Z" fill="#0049FF"/>
<path d="M23.9343 31.6553H22.3901V33.1994H23.9343V31.6553Z" fill="#0049FF"/>
<path d="M17.7575 31.6553H16.2134V33.1994H17.7575V31.6553Z" fill="#0049FF"/>
<path d="M17.532 35.5161L14.8945 40.9207" stroke="#0049FF" stroke-width="1.54416" stroke-miterlimit="10"/>
<path d="M22.6157 35.5161L25.2531 40.9207" stroke="#0049FF" stroke-width="1.54416" stroke-miterlimit="10"/>
<path d="M27.0225 40.9204H12.353" stroke="#0049FF" stroke-width="1.54416" stroke-miterlimit="10"/>
<path d="M10.8088 40.9204H9.26465" stroke="#0049FF" stroke-width="1.54416" stroke-miterlimit="10"/>
<path d="M1.54395 29.3394H30.1109" stroke="#0049FF" stroke-width="1.54416" stroke-miterlimit="10"/>
<path d="M27.7945 10.0373H21.1716L16.9854 12.1605V2.31651C16.9854 1.89033 17.3312 1.54443 17.7574 1.54443H27.7945C28.2207 1.54443 28.5665 1.89033 28.5665 2.31651V9.26523C28.5665 9.69142 28.2207 10.0373 27.7945 10.0373Z" stroke="#0049FF" stroke-width="1.54416" stroke-miterlimit="10"/>
<path d="M23.1621 10.0374V12.3536C23.1621 12.7798 23.508 13.1257 23.9342 13.1257H30.5571L34.7433 15.2489V5.40489C34.7433 4.9787 34.3974 4.63281 33.9712 4.63281H28.5636" stroke="#0049FF" stroke-width="1.54416" stroke-miterlimit="10"/>
</svg>
