<svg width="46" height="47" viewBox="0 0 46 47" fill="none" xmlns="http://www.w3.org/2000/svg">
<g clip-path="url(#clip0_57_406)">
<path d="M21.2154 20.0908C19.993 20.7315 19.1592 22.0121 19.1592 23.4874C19.1592 25.6034 20.8751 27.3193 22.9911 27.3193C24.4733 27.3193 25.7593 26.4771 26.3969 25.2455" stroke="#0049FF" stroke-width="1.53276" stroke-miterlimit="10"/>
<path d="M28.356 27.3188H26.8232V28.8516H28.356V27.3188Z" fill="#0049FF"/>
<path d="M30.6553 29.6182H29.1226V31.1509H30.6553V29.6182Z" fill="#0049FF"/>
<path d="M9.96272 20.4223L7.66357 18.1231L17.6265 8.16016L22.2248 12.7584" stroke="#0049FF" stroke-width="1.53276" stroke-miterlimit="10"/>
<path d="M32.9534 23.4868L38.3189 28.8523L28.3559 38.8152L14.1426 24.6019" stroke="#0049FF" stroke-width="1.53276" stroke-miterlimit="10"/>
<path d="M11.7949 42.3473L15.052 39.0902C15.7295 38.4127 16.6024 37.9636 17.5474 37.8058L19.2388 37.5237C20.1845 37.3659 21.0566 36.9175 21.7341 36.2393L23.7574 34.2168" stroke="#0049FF" stroke-width="1.53276" stroke-miterlimit="10"/>
<path d="M13.4236 30.093C13.8658 29.5772 14.5609 28.3855 14.5609 26.5531C14.5609 25.9476 14.2912 24.8456 13.9532 24.1558C13.8444 23.9313 13.7946 23.6853 13.7946 23.4362C13.7946 22.9787 13.9762 22.5395 14.3004 22.2154L16.9919 19.5238C17.3981 19.1176 17.6265 18.5658 17.6265 17.9911C17.6265 16.794 16.6562 15.8237 15.4591 15.8237C14.8843 15.8237 14.3326 16.0521 13.9264 16.4583L9.62314 20.7615C8.36857 22.0161 7.6635 23.7182 7.6635 25.4924V27.1332C7.6635 27.7433 7.42132 28.328 6.98985 28.7587L2.646 33.1026" stroke="#0049FF" stroke-width="1.53276" stroke-miterlimit="10"/>
<path d="M34.4868 21.1885C34.4868 21.679 34.2921 22.1496 33.9449 22.496L31.9631 24.4779C31.6159 24.825 31.1453 25.0205 30.6549 25.0205C30.1644 25.0205 29.6938 24.8258 29.3474 24.4786L21.2337 16.3657C20.8866 16.0185 20.6919 15.548 20.6919 15.0575C20.6919 14.567 20.8873 14.0957 21.2345 13.7493L23.2194 11.7667C23.5658 11.4202 24.0356 11.2256 24.5269 11.2256C25.0174 11.2256 25.4879 11.4202 25.8351 11.7674L33.9457 19.8803C34.2921 20.2267 34.4868 20.6981 34.4868 21.1885V21.1885Z" stroke="#0049FF" stroke-width="1.53276" stroke-miterlimit="10"/>
<path d="M36.3193 10.1596L39.5404 6.93848" stroke="#0049FF" stroke-width="1.53276" stroke-miterlimit="10"/>
<path d="M36.3193 36.8159L39.5282 40.0248" stroke="#0049FF" stroke-width="1.53276" stroke-miterlimit="10"/>
<path d="M28.1152 5.83781L29.2901 1.4541" stroke="#0049FF" stroke-width="1.53276" stroke-miterlimit="10"/>
<path d="M5.23234 19.1168L0.848633 17.9419" stroke="#0049FF" stroke-width="1.53276" stroke-miterlimit="10"/>
<path d="M17.8668 5.83781L16.6919 1.4541" stroke="#0049FF" stroke-width="1.53276" stroke-miterlimit="10"/>
<path d="M40.7495 19.1168L45.1332 17.9419" stroke="#0049FF" stroke-width="1.53276" stroke-miterlimit="10"/>
<path d="M9.66251 10.1596L6.44141 6.93848" stroke="#0049FF" stroke-width="1.53276" stroke-miterlimit="10"/>
<path d="M28.1152 41.1377L29.2901 45.5214" stroke="#0049FF" stroke-width="1.53276" stroke-miterlimit="10"/>
<path d="M40.7495 27.8584L45.1332 29.0333" stroke="#0049FF" stroke-width="1.53276" stroke-miterlimit="10"/>
</g>
<defs>
<clipPath id="clip0_57_406">
<rect width="45.9829" height="45.9829" fill="white" transform="translate(0 0.495605)"/>
</clipPath>
</defs>
</svg>
