<svg width="22" height="22" viewBox="0 0 22 22" fill="none" xmlns="http://www.w3.org/2000/svg">
<g clip-path="url(#clip0_266_1741)">
<path d="M21.5015 4.07286C21.1558 4.22615 20.8005 4.35552 20.4374 4.46055C20.8673 3.97442 21.195 3.40242 21.3951 2.77649C21.4399 2.63619 21.3934 2.48261 21.2781 2.39085C21.1629 2.29902 21.0029 2.28802 20.8761 2.36317C20.105 2.82049 19.2731 3.14914 18.4009 3.34132C17.5222 2.48275 16.3288 1.99414 15.0951 1.99414C12.491 1.99414 10.3723 4.11274 10.3723 6.71683C10.3723 6.92193 10.3853 7.12589 10.411 7.32701C7.17946 7.04328 4.17519 5.45495 2.11216 2.92431C2.03863 2.83411 1.92537 2.7855 1.80941 2.7948C1.69338 2.80388 1.58912 2.86931 1.5305 2.96988C1.11208 3.68786 0.890873 4.50902 0.890873 5.34453C0.890873 6.4825 1.29716 7.5622 2.01486 8.40586C1.79663 8.33028 1.58487 8.23583 1.38275 8.12363C1.27424 8.06323 1.14181 8.06415 1.03401 8.12597C0.926144 8.18778 0.858512 8.30147 0.855673 8.42573C0.855176 8.44667 0.855176 8.46761 0.855176 8.48882C0.855176 10.1874 1.76938 11.7167 3.16709 12.5502C3.04701 12.5382 2.92701 12.5209 2.80778 12.4981C2.68487 12.4746 2.55847 12.5177 2.47558 12.6114C2.39255 12.7051 2.36508 12.8357 2.40334 12.9549C2.92069 14.5701 4.25268 15.7582 5.86294 16.1204C4.5274 16.9569 3.0001 17.3951 1.3968 17.3951C1.06226 17.3951 0.725802 17.3754 0.396512 17.3364C0.232931 17.317 0.0765182 17.4136 0.0208086 17.5691C-0.0349011 17.7248 0.0241441 17.8983 0.163312 17.9875C2.22301 19.3081 4.60461 20.0062 7.05052 20.0062C11.8589 20.0062 14.8668 17.7388 16.5434 15.8366C18.6341 13.4648 19.8332 10.3254 19.8332 7.22347C19.8332 7.09388 19.8312 6.96302 19.8273 6.83258C20.6521 6.21112 21.3623 5.459 21.9402 4.59454C22.028 4.46325 22.0185 4.28973 21.9168 4.16888C21.8152 4.04795 21.6459 4.00884 21.5015 4.07286Z" fill="white"/>
</g>
<defs>
<clipPath id="clip0_266_1741">
<rect width="22" height="22" fill="white"/>
</clipPath>
</defs>
</svg>
