<svg width="21" height="21" viewBox="0 0 21 21" fill="none" xmlns="http://www.w3.org/2000/svg">
<path d="M10.4913 12.1625V8.9075H18.6813C18.8038 9.45875 18.9 9.975 18.9 10.7013C18.9 15.6975 15.5488 19.25 10.5 19.25C5.67 19.25 1.75 15.33 1.75 10.5C1.75 5.67 5.67 1.75 10.5 1.75C12.8625 1.75 14.84 2.61625 16.3538 4.03375L13.8688 6.44875C13.2388 5.85375 12.1363 5.15375 10.5 5.15375C7.60375 5.15375 5.24125 7.56 5.24125 10.5087C5.24125 13.4575 7.60375 15.8637 10.5 15.8637C13.8513 15.8637 15.085 13.545 15.3125 12.1712H10.4913V12.1625Z" fill="white"/>
</svg>
