<svg width="24" height="24" viewBox="0 0 24 24" fill="none" xmlns="http://www.w3.org/2000/svg">
<path d="M3 3V13C3 17.2 6.6322 21 12 23C17.368 21 21 17.2 21 13V3H3Z" fill="white"/>
<path d="M3 2V12C3 16.2 6.6322 20 12 22C17.368 20 21 16.2 21 12V2H3Z" fill="white"/>
<path d="M3 2V12C3 16.2 6.6322 20 12 22V2H3Z" fill="white"/>
<path d="M5 4V12C5 15.4 7.8251 18.4 12 20C16.175 18.4 19 15.4 19 12V4H5Z" fill="#62CC48"/>
<path d="M12 4V20C16.175 18.4 19 15.4 19 12V4H12Z" fill="#62CC48"/>
<path d="M16 9L11.317 13.6L9.36588 11.7L7.70728 13.4L9.65847 15.2999L11.22 16.9L11.317 17L17.659 10.6L16 9V9Z" fill="white"/>
<path d="M16 8L11.317 12.6L9.36588 10.7L7.70728 12.4L9.65847 14.2999L11.22 15.9L11.317 16L17.659 9.59998L16 8V8Z" fill="white"/>
</svg>
