<svg width="47" height="47" viewBox="0 0 47 47" fill="none" xmlns="http://www.w3.org/2000/svg">
<g clip-path="url(#clip0_57_355)">
<path d="M23.6664 44.4338C23.3982 44.8806 22.9092 45.1795 22.3505 45.1795C10.0884 45.1795 1.6582 36.7493 1.6582 24.4872C1.6582 23.9285 1.95709 23.4395 2.40389 23.1713L6.2358 20.8729C6.46495 20.735 6.73472 20.6553 7.02288 20.6553C7.59306 20.6553 8.09121 20.9664 8.35485 21.4293L11.4227 26.7978C11.5491 27.0208 11.6212 27.2783 11.6212 27.5527C11.6212 27.87 11.5246 28.165 11.3591 28.4095L9.51821 31.1248C9.39406 31.308 9.32202 31.5295 9.32202 31.7678C9.32202 34.4501 12.3875 37.5157 15.0699 37.5157C15.309 37.5157 15.5305 37.4429 15.7136 37.3179L18.4259 35.4802C18.6711 35.3139 18.9662 35.2165 19.285 35.2165C19.5624 35.2165 19.823 35.2909 20.0483 35.4196L25.413 38.4851C25.8728 38.7495 26.1824 39.2462 26.1824 39.8148C26.1824 40.103 26.1027 40.372 25.9655 40.6019L23.6664 44.4338Z" stroke="#0049FF" stroke-width="1.53276" stroke-miterlimit="10"/>
<path d="M8.25257 44.1255C6.0652 42.6234 4.1913 40.7464 2.69141 38.5552" stroke="#0049FF" stroke-width="1.53276" stroke-miterlimit="10"/>
<path d="M10.6492 45.5559C10.2468 45.349 9.85133 45.1305 9.46582 44.9014" stroke="#0049FF" stroke-width="1.53276" stroke-miterlimit="10"/>
<path d="M4.94531 27.6323C5.21433 29.4809 5.7217 31.1931 6.44367 32.7436" stroke="#0049FF" stroke-width="1.53276" stroke-miterlimit="10"/>
<path d="M4.72363 24.4868C4.72363 24.9804 4.73896 25.4648 4.77038 25.9423" stroke="#0049FF" stroke-width="1.53276" stroke-miterlimit="10"/>
<path d="M28.4814 3.79492H16.2193C15.3732 3.79492 14.6865 4.4816 14.6865 5.32769V21.8264C14.6865 22.1168 15.0115 22.2885 15.2506 22.1245L18.5146 19.8889H36.1452C36.9913 19.8889 37.678 19.2023 37.678 18.3562V5.32769C37.678 4.4816 36.9913 3.79492 36.1452 3.79492H33.0797" stroke="#0049FF" stroke-width="1.53276" stroke-miterlimit="10"/>
<path d="M11.6211 9.15966V5.32755C11.6211 4.23463 12.0043 3.23061 12.6427 2.44043" stroke="#0049FF" stroke-width="1.53276" stroke-miterlimit="10"/>
<path d="M28.4818 9.92604C28.4818 11.196 27.4518 12.2253 26.1826 12.2253C24.9126 12.2253 23.8833 11.196 23.8833 9.92604V9.15962C23.8833 7.88966 24.9126 6.86035 26.1826 6.86035C27.4518 6.86035 28.4818 7.88966 28.4818 9.15962V9.92604Z" stroke="#0049FF" stroke-width="1.53276" stroke-miterlimit="10"/>
<path d="M22.3506 17.5898C22.3506 16.3198 23.3799 15.2905 24.6499 15.2905H27.7155C28.9847 15.2905 30.0148 16.3198 30.0148 17.5898" stroke="#0049FF" stroke-width="1.53276" stroke-miterlimit="10"/>
<path d="M30.0142 3.79492H31.547" stroke="#0049FF" stroke-width="1.53276" stroke-miterlimit="10"/>
<path d="M36.1455 22.1875V24.4868" stroke="#0049FF" stroke-width="1.53276" stroke-miterlimit="10"/>
<path d="M33.8462 29.0854C33.8462 29.9315 34.5329 30.6182 35.379 30.6182H36.9119C37.758 30.6182 38.4447 29.9315 38.4447 29.0854C38.4447 28.2392 37.758 27.5525 36.9119 27.5525H35.379C34.5329 27.5525 33.8462 26.8658 33.8462 26.0197C33.8462 25.1735 34.5329 24.4868 35.379 24.4868H36.9119C37.758 24.4868 38.4447 25.1735 38.4447 26.0197" stroke="#0049FF" stroke-width="1.53276" stroke-miterlimit="10"/>
<path d="M36.1455 32.9174V30.6182" stroke="#0049FF" stroke-width="1.53276" stroke-miterlimit="10"/>
<path d="M28.4814 22.1879V37.1547C28.4814 37.4451 28.8064 37.6168 29.0455 37.4528L32.3097 35.2171H42.2771C43.1232 35.2171 43.8099 34.5304 43.8099 33.6843V21.4215C43.8099 20.5754 43.1232 19.8887 42.2771 19.8887H39.9778" stroke="#0049FF" stroke-width="1.53276" stroke-miterlimit="10"/>
<path d="M45.1995 37.2305C44.4047 37.8865 43.3853 38.282 42.2763 38.282H39.9771" stroke="#0049FF" stroke-width="1.53276" stroke-miterlimit="10"/>
<path d="M17.752 27.5527C20.2911 27.5527 22.3505 29.6121 22.3505 32.1513" stroke="#0049FF" stroke-width="1.53276" stroke-miterlimit="10"/>
<path d="M17.752 24.4873C21.9841 24.4873 25.4162 27.9193 25.4162 32.1515" stroke="#0049FF" stroke-width="1.53276" stroke-miterlimit="10"/>
<path d="M38.4445 38.2822H36.9116" stroke="#0049FF" stroke-width="1.53276" stroke-miterlimit="10"/>
<path d="M11.6211 10.6919V12.2247" stroke="#0049FF" stroke-width="1.53276" stroke-miterlimit="10"/>
</g>
<defs>
<clipPath id="clip0_57_355">
<rect width="45.9829" height="45.9829" fill="white" transform="translate(0.125488 0.729492)"/>
</clipPath>
</defs>
</svg>
