<svg width="18" height="18" viewBox="0 0 18 18" fill="none" xmlns="http://www.w3.org/2000/svg">
<path d="M8.99994 0C4.03741 0 0 4.03735 0 8.99994C0 13.9625 4.03735 17.9999 8.99994 17.9999C13.9625 17.9999 17.9999 13.9625 17.9999 8.99994C17.9999 4.03735 13.9625 0 8.99994 0ZM8.99994 1.3332C13.2419 1.3332 16.6666 4.75788 16.6666 8.99982C16.6666 13.2418 13.2419 16.6664 8.99994 16.6664C4.758 16.6664 1.33332 13.2418 1.33332 8.99982C1.33332 4.75788 4.758 1.3332 8.99994 1.3332ZM8.99994 3.66646C8.63164 3.66646 8.33333 3.96501 8.33333 4.33307V8.99958C8.33333 9.18373 8.41053 9.34766 8.5312 9.46833L11.3542 12.3018C11.6146 12.5622 12.0417 12.5622 12.3021 12.3018C12.5625 12.0416 12.5625 11.6142 12.3021 11.3538L9.66661 8.72893V4.33324C9.66661 3.96494 9.36807 3.66664 9.00001 3.66664L8.99994 3.66646Z" fill="#0049FF"/>
</svg>
