<svg width="16" height="20" viewBox="0 0 16 20" fill="none" xmlns="http://www.w3.org/2000/svg">
<path d="M3.99839 0.0003862C2.89949 0.0003862 1.9992 0.901397 1.9992 1.99983V2.00736C0.900298 2.00669 0 2.9067 0 4.0051V18.0014C0 19.1 0.900298 20 1.9992 20H12.0016C13.1005 20 14.0008 19.1 14.0008 18.0014V17.9957C15.0997 17.9957 16 17.0947 16 15.9963V4.50355V4.50372C16 4.37073 15.947 4.24326 15.8526 4.14941L11.8427 0.147213V0.147381C11.7488 0.0530312 11.6213 0 11.4882 0L3.99839 0.0003862ZM3.99839 0.999597H10.9897V3.00688C10.9897 4.10545 11.8869 5.00547 12.9859 5.00547H15.0006V15.9963C15.0006 16.5585 14.5634 16.9955 14.0011 16.9955H3.99869C3.43626 16.9955 2.99918 16.5584 2.99918 15.9963V1.99996C2.99918 1.4377 3.43626 0.999768 3.99869 0.999768L3.99839 0.999597ZM11.99 1.70708L14.2947 4.00613L12.9858 4.0063C12.4234 4.0063 11.9901 3.56918 11.9901 3.00709L11.99 1.70708ZM1.99911 3.0059V15.9962C1.99911 17.0948 2.89941 17.9957 3.99831 17.9957H13.0013V18.0014C13.0013 18.5636 12.564 19.0006 12.0018 19.0006L1.99937 19.0009C1.43694 19.0009 0.999855 18.5638 0.999855 18.0017V4.00539C0.999855 3.44313 1.43694 3.00618 1.99937 3.00618L1.99911 3.0059ZM4.9471 4.00626C4.67635 4.02667 4.4712 4.25937 4.48491 4.53053C4.49863 4.80187 4.72638 5.01249 4.99799 5.00547H9.49606C9.63043 5.00848 9.76062 4.95729 9.85684 4.86328C9.95306 4.76926 10.0073 4.64028 10.0073 4.50578C10.0073 4.37128 9.95306 4.24247 9.85684 4.14845C9.76062 4.05443 9.63043 4.00308 9.49606 4.00626H4.99799C4.98109 4.00542 4.964 4.00542 4.9471 4.00626ZM4.9481 7.00389V7.00406C4.94777 7.0044 4.94743 7.00473 4.9471 7.00507C4.67618 7.02531 4.47069 7.258 4.48457 7.52934C4.49829 7.80084 4.72621 8.01164 4.99795 8.00428H12.9934H12.9932C13.1277 8.00729 13.2578 7.95593 13.3538 7.86191C13.4499 7.7679 13.5041 7.63909 13.5041 7.50458C13.5041 7.37025 13.4499 7.24144 13.3538 7.14743C13.2578 7.05341 13.1277 7.00205 12.9932 7.00507H4.99778C4.98122 7.00389 4.96448 7.00356 4.94791 7.00406L4.9481 7.00389ZM4.99881 9.99968L4.99897 9.99985C4.86444 9.99684 4.73441 10.0482 4.63836 10.1422C4.54231 10.2362 4.48809 10.365 4.48809 10.4995C4.48809 10.6339 4.54231 10.7627 4.63836 10.8567C4.73441 10.9507 4.86443 11.0021 4.99897 10.9991H12.9935C13.1279 11.0021 13.2579 10.9507 13.354 10.8567C13.4502 10.7627 13.5043 10.6339 13.5043 10.4995C13.5043 10.365 13.4502 10.2362 13.354 10.1422C13.2579 10.0482 13.1279 9.99684 12.9935 9.99985L4.99881 9.99968ZM4.99881 12.9975L4.99897 12.9977C4.72253 12.9977 4.49862 13.2215 4.49862 13.4979C4.49862 13.774 4.72252 13.9979 4.99897 13.9979H10.4956C10.7719 13.9979 10.996 13.7741 10.996 13.4979C10.996 13.2215 10.7719 12.9977 10.4956 12.9977L4.99881 12.9975Z" fill="#0049FF"/>
</svg>
