<svg width="18" height="18" viewBox="0 0 18 18" fill="none" xmlns="http://www.w3.org/2000/svg">
<path d="M12.5299 5.79618L7.65183 10.6718L5.46933 8.48935C5.18808 8.2081 4.729 8.2081 4.44775 8.48935C4.1665 8.7706 4.1665 9.22968 4.44775 9.51093L7.14096 12.2041C7.28269 12.3459 7.46726 12.4157 7.65167 12.4157C7.83625 12.4157 8.02066 12.346 8.16238 12.2041L13.5511 6.8174C13.8324 6.53615 13.8324 6.07707 13.5511 5.79582C13.2675 5.51237 12.8108 5.51237 12.5296 5.79598L12.5299 5.79618Z" fill="#0049FF"/>
<path d="M9 0C4.03634 0 0 4.03634 0 9C0 13.9637 4.03634 18 9 18C13.9637 18 18 13.9637 18 9C18 4.03634 13.9637 0 9 0ZM9 16.5556C4.83509 16.5556 1.44442 13.1671 1.44442 9C1.44442 4.83292 4.83513 1.44442 9 1.44442C13.1649 1.44442 16.5556 4.83292 16.5556 9C16.5556 13.1671 13.1649 16.5556 9 16.5556Z" fill="#0049FF"/>
</svg>
