<svg width="219" height="46" viewBox="0 0 219 46" fill="none" xmlns="http://www.w3.org/2000/svg">
<path d="M15.2838 23.3122C15.7422 23.6343 15.7225 24.2804 16.1355 24.6056L16.3443 26.0367L15.308 27.557C13.9904 28.2453 12.0298 28.5479 10.806 27.4391C10.1131 26.8158 9.93312 25.9157 10.1131 25.0171L10.6003 23.7056C10.8741 23.5182 11.2432 23.471 11.4308 23.1504C12.0752 22.7357 12.9027 22.8253 13.6425 22.6663C14.1961 22.8476 15.0282 22.5496 15.2838 23.3122" fill="#FFCC00"/>
<path d="M11.8721 31.7292C12.2851 31.7292 12.5831 32.032 12.9734 31.9608C13.5301 32.1679 13.459 32.8398 14.0369 33.0031C14.4756 33.8745 14.7494 34.826 14.9809 35.7669C14.8205 36.3206 15.285 36.6443 15.1201 37.1512L15.285 37.2464C15.3107 37.7743 15.2365 38.3749 15.0308 38.8832C15.1201 39.8529 14.6345 40.6592 14.22 41.4897C13.925 41.6741 13.7843 42.2053 13.3713 42.113C12.627 42.3446 12.5604 43.4473 11.6619 43.3141C11.087 43.7498 10.2988 43.4925 9.60599 43.5182C9.21568 43.3141 8.66202 43.3609 8.38821 43.0115C7.69082 42.7362 7.07209 42.2278 6.47455 41.7195C6.24007 41.2097 5.71211 40.9798 5.64403 40.4064C5.84828 39.7121 5.40956 39.0873 5.59258 38.399L5.45947 37.2462L5.89364 35.26C6.6349 34.865 6.4216 33.9711 7.16437 33.6928C7.62577 32.6338 8.72707 32.3978 9.5833 31.8668C9.91156 31.8033 10.2988 31.9847 10.5545 31.6854C11.0174 31.6142 11.4561 32.1031 11.8721 31.7292" fill="#E30613"/>
<path d="M49.4956 1.00365C49.3095 4.25761 46.635 6.44816 45.222 9.19384C44.629 10.8306 43.1949 11.7988 42.1798 13.2783C41.2555 14.2223 40.3554 15.2616 39.5975 16.3221C39.7382 17.0799 40.54 17.2917 41.0029 17.8439C42.0407 18.4672 42.1541 19.6395 43.0572 20.3566C43.5852 20.3566 43.5852 21.1432 44.1661 21.051C45.3884 22.3671 46.3808 23.7255 47.3898 25.1566C47.5532 25.6649 47.8089 26.1687 48.2461 26.5393C49.0554 27.7163 49.724 28.9628 50.553 30.1624C50.6726 31.4997 51.7996 32.3968 52.143 33.6479C52.6543 34.315 52.86 35.1001 53.3244 35.7688C54.037 37.3375 54.5241 38.9713 55.3743 40.4765C55.5361 40.82 55.3289 41.1664 55.1458 41.4205C54.8221 41.6748 54.5725 41.2103 54.1958 41.2781C52.3124 40.5883 50.5061 39.5974 48.7559 38.537C46.9526 37.0817 44.9694 36.0469 43.1949 34.5221C42.5021 34.3377 42.2267 33.5312 41.5853 33.206C39.8744 32.1455 38.5098 30.6252 36.7822 29.6328C36.0001 29.0322 35.2135 28.4589 34.4284 27.8341C33.8278 27.7616 33.6251 27.0701 33.0457 26.8644C31.7523 26.0808 30.5799 24.9931 29.2653 24.2548C29.1473 24.4426 29.2653 24.7162 29.1473 24.9023C28.2699 25.757 28.5043 27.0701 27.8735 28.0171C27.8554 29.3771 26.9068 30.374 26.5196 31.5676C25.4334 33.507 24.4849 35.4933 23.3564 37.4054C21.8542 39.3917 21.0509 41.7894 18.9285 43.3809C18.4671 43.9572 17.9376 44.2553 17.3612 44.6274C17.1056 44.5562 16.7365 44.5974 16.6669 44.2809C16.4127 43.7983 16.7365 43.0556 16.3915 42.6153C16.6865 41.9497 16.5035 41.1903 16.6442 40.4505L16.5307 40.1298C16.5534 39.1132 17.0587 38.26 16.8514 37.2207C17.1283 36.5763 17.2432 35.8592 17.3083 35.1452C17.6396 34.2678 17.9164 33.3208 18.0072 32.3753C18.3037 31.8216 18.4187 31.1091 18.3506 30.4616C18.579 29.8656 18.6274 29.1455 19.2537 28.7083C19.343 28.3134 19.2537 27.9247 19.3188 27.5102C19.9435 25.6162 20.7045 23.7934 21.187 21.86C21.187 21.7207 21.0509 21.6756 20.9601 21.6482C19.5986 21.58 18.3294 21.86 17.0587 21.5135C14.9801 21.4878 12.8834 21.2112 10.9047 20.7965C10.0939 20.6348 9.12417 20.727 8.38745 20.2655C7.90185 20.2869 7.34364 20.3804 6.8898 20.1278C5.93978 19.6634 4.78705 19.7346 3.84005 19.2262C3.12602 19.3231 2.62075 18.857 1.97026 18.789C1.34851 18.8375 1.0036 18.3035 0.566406 17.957V17.7529C1.71914 16.1811 3.56472 15.7454 5.22575 15.1449C6.86409 14.6365 8.6885 14.5927 10.3949 14.2432C11.4781 14.0601 12.652 14.3629 13.7366 14.172C15.6972 14.2218 17.5897 14.5425 19.529 14.5927C20.1765 14.6836 20.7725 14.9846 21.42 14.9572L21.3958 14.6832L19.5714 12.1932C18.8876 10.5775 17.6169 9.21751 17.1737 7.50807C16.7607 7.00129 17.151 6.24338 16.8257 5.68819C16.806 5.43262 17.0148 5.25103 17.1283 5.04074C17.5231 4.88036 17.9588 5.15736 18.3506 4.90307C19.5291 5.18009 20.6122 5.59442 21.7876 5.82285C23.01 6.30995 24.258 6.79559 25.3411 7.6034C26.7011 8.56854 28.3425 9.19332 29.3984 10.691C29.6798 10.9465 30.114 10.992 30.48 10.8951C30.8053 10.8522 30.8779 10.4609 31.1789 10.346C32.6055 9.44584 34.2211 8.94211 35.6326 7.9482C36.1999 7.36882 37.1302 7.30075 37.4706 6.51713C37.9138 6.31001 38.3087 6.03306 38.7685 5.91655C39.5779 5.34322 40.3827 4.71843 41.2555 4.25702C41.7215 4.20857 42.0876 3.95298 42.4582 3.70487C43.8878 2.91975 45.3885 2.27377 46.7469 1.37518C47.048 0.567372 47.945 0.750445 48.5925 0.567383C48.9147 0.636851 49.3549 0.588826 49.4956 1.00306" fill="#00A0DF"/>
<path d="M65.8735 39.1783H218.432V38.5823H65.8735V39.1783Z" fill="black"/>
<path d="M65.8735 39.7453H218.432V39.1538H65.8735V39.7453Z" fill="black"/>
<path d="M178.107 29.6095C177.513 29.9787 176.779 30.2388 175.631 30.2388C174.083 30.2388 172.754 28.9454 172.754 27.2496C172.754 24.8881 174.524 24.0017 176.222 24.0017C176.885 24.0017 177.586 24.1093 177.992 24.183L178.107 29.6095ZM171.68 20.6024C172.604 19.2379 173.528 18.6495 175.338 18.6495C177.846 18.6495 177.992 20.8596 177.992 22.8534C177.477 22.8534 176.85 22.7428 176.257 22.7428C172.899 22.7428 169.17 24.2586 169.17 28.1707C169.17 30.9012 171.643 32.4533 174.155 32.4533C175.778 32.4533 176.961 31.5653 178.216 30.6455C178.657 31.5653 179.765 32.2687 181.175 32.4533L183.938 30.2386L183.384 29.6864C183.124 29.7576 182.794 29.8348 182.608 29.8348C181.796 29.8348 181.505 29.3508 181.505 27.6549V26.3615C181.542 24.2588 181.646 22.3405 181.646 21.0108C181.646 17.3196 178.843 16.4316 175.558 16.4316C173.823 16.4316 172.348 16.6555 170.795 17.0957V20.6024L171.68 20.6024Z" fill="black"/>
<path d="M89.6109 11.267H88.024C86.8516 7.7059 83.1378 6.30507 79.8808 6.30507C73.2926 6.30507 70.5666 11.6043 70.5666 17.9655C70.5666 28.6427 78.2924 30.458 81.4329 30.458C84.5038 30.458 87.2616 29.1344 88.9332 26.484L90.1056 26.9772L88.9332 31.1796C85.9031 31.7484 84.0091 32.0495 81.5509 32.0495C70.2641 32.0495 65.3052 25.0847 65.3052 18.2681C65.3052 10.4698 71.326 4.71362 79.8112 4.71362C84.7262 4.71362 86.6202 5.54719 89.3084 6.23094L89.6109 11.267Z" fill="black"/>
<path d="M93.9076 20.5811V17.0684C95.4566 16.6267 96.9346 16.4028 98.6773 16.4028C101.966 16.4028 104.777 17.2924 104.777 20.9881C104.777 22.3223 104.666 24.2435 104.627 26.3508V27.6458C104.627 29.3477 104.924 29.8287 105.742 29.8287C105.923 29.8287 106.255 29.7545 106.515 29.6773L107.07 30.234L104.299 32.4533C102.889 32.2719 101.782 31.5638 101.334 30.638C100.081 31.5638 98.8952 32.4533 97.2719 32.4533C94.7577 32.4533 92.2798 30.8981 92.2798 28.1585C92.2798 24.2434 96.0148 22.7291 99.3792 22.7291C99.9677 22.7291 100.599 22.8351 101.113 22.8351C101.113 20.8412 100.966 18.6235 98.4534 18.6235C96.6396 18.6235 95.7168 19.2135 94.791 20.581L93.9076 20.5811ZM101.113 24.1679C100.711 24.0907 100.006 23.9835 99.3369 23.9835C97.6396 23.9835 95.8636 24.8745 95.8636 27.2375C95.8636 28.9394 97.2009 30.2343 98.7499 30.2343C99.8951 30.2343 100.635 29.9757 101.231 29.608L101.113 24.1679Z" fill="black"/>
<path d="M113.087 16.444C113.087 18.0037 113.237 21.2546 113.237 24.2862V29.6868C113.237 30.9439 113.831 31.127 114.678 31.3524V32.0921C113.571 32.0921 112.464 31.9772 111.346 31.9772C110.353 31.9772 109.357 32.0514 108.354 32.0921V31.3524C109.243 31.1268 109.648 30.9437 109.648 29.6868V25.1016C109.648 22.4361 109.432 20.9551 109.131 20.1806C108.836 19.4438 108.465 19.1867 107.582 19.0339V18.2956C109.282 17.8917 111.244 17.1883 112.35 16.444H113.087ZM111.278 10.1978C112.35 10.1978 113.311 10.9738 113.311 12.0857C113.311 13.193 112.35 13.9676 111.278 13.9676C110.205 13.9676 109.243 13.193 109.243 12.0857C109.243 10.9738 110.205 10.1978 111.278 10.1978Z" fill="black"/>
<path d="M116.524 31.3492C117.704 31.1648 118.481 30.2434 118.966 29.614L122.552 25.0273L118.303 19.2591C117.593 18.3333 117.333 18.0761 116.262 17.592V16.8538C117.374 16.8881 118.521 16.9674 119.63 16.9674C120.739 16.9674 121.85 16.8902 122.955 16.8538V17.592C122.513 17.8112 122.18 17.8913 122.18 18.4437C122.18 18.701 122.291 19.1835 122.622 19.6282L124.66 22.3997L126.467 19.9943C126.837 19.48 127.026 19.0352 127.026 18.7765C127.026 18.0761 126.579 17.8114 125.989 17.592V16.8538C126.985 16.8881 127.947 16.9674 128.945 16.9674C129.907 16.9674 130.909 16.8902 131.871 16.8538V17.592C130.425 17.9265 129.65 18.8128 128.839 19.8506L125.693 23.8443L129.688 29.3902C130.24 30.1299 131.089 31.0542 132.015 31.3492V32.0905C130.909 32.0519 129.832 31.9785 128.726 31.9785C127.614 31.9785 126.54 32.051 125.434 32.0905V31.3492C125.84 31.3106 126.174 30.909 126.174 30.5338C126.174 30.316 125.879 29.7245 125.579 29.2782L123.584 26.4327L121.586 29.1284C121.359 29.4642 121.073 30.1692 121.073 30.5005C121.073 31.0875 121.359 31.2766 121.85 31.3492V32.0905C120.887 32.0519 119.884 31.9785 118.923 31.9785C118.115 31.9785 117.333 32.051 116.524 32.0905V31.3492Z" fill="black"/>
<path d="M134.635 20.5811V17.0684C136.188 16.6267 137.663 16.4028 139.406 16.4028C142.698 16.4028 145.51 17.2924 145.51 20.9881C145.51 22.3223 145.395 24.2435 145.359 26.3508V27.6458C145.359 29.3477 145.655 29.8287 146.468 29.8287C146.654 29.8287 146.983 29.7545 147.245 29.6773L147.8 30.234L145.02 32.4533C143.622 32.2719 142.515 31.5638 142.068 30.638C140.81 31.5638 139.625 32.4533 138.005 32.4533C135.488 32.4533 133.004 30.8981 133.004 28.1585C133.004 24.2434 136.737 22.7291 140.106 22.7291C140.701 22.7291 141.327 22.8351 141.846 22.8351C141.846 20.8412 141.701 18.6235 139.185 18.6235C137.37 18.6235 136.445 19.2135 135.524 20.581L134.635 20.5811ZM141.846 24.1679C141.442 24.0907 140.74 23.9835 140.072 23.9835C138.368 23.9835 136.597 24.8745 136.597 27.2375C136.597 28.9394 137.931 30.2343 139.479 30.2343C140.624 30.2343 141.371 29.9757 141.961 29.608L141.846 24.1679Z" fill="black"/>
<path d="M155.219 8.38453C155.219 7.6841 155.659 7.64626 156.692 7.64626C160.681 7.64626 162.194 9.78988 162.194 13.0378C162.194 16.2479 159.977 18.2796 156.692 18.2796C156.213 18.2796 155.691 18.2453 155.036 18.2054L155.219 8.38453ZM151.08 28.9462C151.08 30.5346 150.603 31.0868 148.974 31.2713V31.9369H155.326C155.842 31.9369 156.363 31.9755 156.844 32.0111C157.361 32.0454 157.877 32.0806 158.356 32.0806C162.38 32.0806 167.143 30.5345 167.143 25.7738C167.143 21.9329 164.813 19.9754 161.341 19.0163V18.9421C164.114 18.0556 166.696 16.0254 166.696 12.8879C166.696 8.0879 161.745 6.31641 157.615 6.31641C156.73 6.31641 155.881 6.46477 154.22 6.46477C152.744 6.46477 151.231 6.31641 149.384 6.31641V7.13032C150.381 7.27869 150.976 7.60837 150.976 9.01219C150.976 12.3373 151.08 17.0238 151.08 21.4533L151.08 28.9462ZM155.036 19.7924C155.806 19.7924 156.396 19.7538 157.024 19.7538C160.565 19.7538 162.636 22.265 162.636 25.6248C162.636 28.4658 160.754 30.7547 157.577 30.7547C155.291 30.7547 155.036 30.3855 155.036 28.3932V19.7924Z" fill="black"/>
<path d="M184.537 18.9881C185.646 18.9881 186.161 19.6143 186.161 20.6854C186.161 21.8653 186.347 23.8622 186.347 26.0013V29.6199C186.347 30.8755 185.903 31.0192 184.981 31.352V32.0902C186.017 32.0902 187.08 31.9813 188.117 31.9813C189.186 31.9813 190.224 32.0538 191.293 32.0902V31.352C190.3 31.2413 189.924 30.9467 189.924 29.6199V26.5928C189.924 23.7125 190.002 21.646 190.002 20.2437C190.002 18.8776 192.361 18.5085 193.1 18.5085C195.721 18.5085 196.127 21.2391 196.127 23.2329V29.6199C196.127 30.8755 195.829 31.1341 194.795 31.352V32.0902C195.983 32.0902 197.124 31.9813 198.302 31.9813C199.231 31.9813 200.114 32.0538 201.039 32.0902V31.352C200.004 31.0617 199.707 30.8013 199.707 29.6199V21.7943C199.707 18.6568 198.267 16.4769 194.614 16.4769C193.062 16.4769 191.402 17.4012 190.11 18.2498C190.15 17.622 190.15 17.0336 190.183 16.4058H189.446C188.047 17.2877 186.717 17.8444 184.537 18.2498L184.537 18.9881Z" fill="black"/>
<path d="M218.414 31.3082C217.31 30.9784 215.98 29.7969 215.502 29.2432L209.923 22.708L212.767 19.7173C213.65 18.7945 214.871 17.9458 216.199 17.5752V16.84C215.279 16.9111 214.355 16.9506 213.431 16.9506C212.437 16.9506 211.398 16.912 210.402 16.84V17.5752C210.738 17.7278 211.069 18.1697 211.069 18.5373C211.069 18.9455 210.883 19.4979 210.107 20.2725L207.082 23.2617V5.87842H206.269C204.941 6.87229 203.211 7.64683 201.359 8.12792V8.97504C202.282 8.97504 203.13 9.86304 203.211 11.3758C203.318 12.7797 203.506 15.548 203.506 17.6901V29.6486C203.506 30.4595 203.211 31.1236 202.1 31.3082V32.0479C203.096 31.9754 204.056 31.9373 205.05 31.9373C206.159 31.9373 207.23 32.0479 208.336 32.0479V31.3082C207.451 31.1238 207.082 30.6849 207.082 29.5745V24.5143H207.157L210.957 28.6895C211.587 29.3885 212.029 30.2432 212.029 30.6441C212.029 31.0133 211.767 31.3082 211.439 31.3082V32.0479C212.697 32.0479 213.947 31.9373 215.201 31.9373C216.273 31.9373 217.346 32.0097 218.414 32.0479V31.3082Z" fill="black"/>
<path d="M65.8735 39.7453H218.432V39.1538H65.8735V39.7453Z" fill="black"/>
</svg>
