<svg width="47" height="47" viewBox="0 0 47 47" fill="none" xmlns="http://www.w3.org/2000/svg">
<path d="M9.32129 34.4516V34.8348C9.32129 35.8932 10.1789 36.7507 11.2372 36.7507H13.5364C14.5948 36.7507 15.4523 35.8932 15.4523 34.8348C15.4523 33.7764 14.5948 32.9188 13.5364 32.9188H11.2372C10.1789 32.9188 9.32129 32.0612 9.32129 31.0029C9.32129 29.9445 10.1789 29.0869 11.2372 29.0869H13.5364C14.5948 29.0869 15.4523 29.9445 15.4523 31.0029V31.3861" stroke="white" stroke-width="1.53276" stroke-miterlimit="10"/>
<path d="M12.3872 26.7876V29.0867" stroke="white" stroke-width="1.53276" stroke-miterlimit="10"/>
<path d="M12.3872 36.7505V39.0496" stroke="white" stroke-width="1.53276" stroke-miterlimit="10"/>
<path d="M3.33447 31.2928C4.10085 26.9888 7.86226 23.7217 12.387 23.7217C17.4658 23.7217 21.5836 27.8394 21.5836 32.9183C21.5836 37.9971 17.4658 42.1148 12.387 42.1148C8.43244 42.1148 5.06036 39.6187 3.76135 36.1164" stroke="white" stroke-width="1.53276" stroke-miterlimit="10"/>
<path d="M3.29696 34.323C3.22645 33.8647 3.19043 33.3964 3.19043 32.9189" stroke="white" stroke-width="1.53276" stroke-miterlimit="10"/>
<path d="M34.6116 44.4144H33.8453C32.9992 44.4144 32.3125 43.7277 32.3125 42.8816V25.2549L34.2285 22.7319L36.1444 25.2549V42.8816C36.1444 43.7277 35.4577 44.4144 34.6116 44.4144Z" stroke="white" stroke-width="1.53276" stroke-miterlimit="10"/>
<path d="M32.3125 40.582H36.1444" stroke="white" stroke-width="1.53276" stroke-miterlimit="10"/>
<path d="M32.3135 38.9795L20.64 42.186L19.646 38.5664" stroke="white" stroke-width="1.53276" stroke-miterlimit="10"/>
<path d="M15.7418 24.3539L13.999 18.0098L18.3306 10.3943L34.5442 5.94238L42.8249 36.0918L36.1444 37.9266" stroke="white" stroke-width="1.53276" stroke-miterlimit="10"/>
<path d="M22.5728 25.3824L29.7783 23.4028" stroke="white" stroke-width="1.53276" stroke-miterlimit="10"/>
<path d="M29.7781 26.5825L23.3857 28.3383" stroke="white" stroke-width="1.53276" stroke-miterlimit="10"/>
<path d="M27.5131 30.3838L24.1978 31.295" stroke="white" stroke-width="1.53276" stroke-miterlimit="10"/>
<path d="M18.3306 10.3955L19.9707 16.3679L13.999 18.008" stroke="white" stroke-width="1.53276" stroke-miterlimit="10"/>
<path d="M31.5467 11.46L26.182 19.1238L23.1165 17.591L19.6724 22.7304" stroke="white" stroke-width="1.53276" stroke-miterlimit="10"/>
<path d="M28.002 12.2263L31.5465 11.46L32.4401 14.6466" stroke="white" stroke-width="1.53276" stroke-miterlimit="10"/>
<path d="M5.48975 20.6565V4.5625H26.9484V8.02808" stroke="white" stroke-width="1.53276" stroke-miterlimit="10"/>
<path d="M5.48975 22.189V23.7217" stroke="white" stroke-width="1.53276" stroke-miterlimit="10"/>
<path d="M39.211 8.39404H37.6782V9.92681H39.211V8.39404Z" fill="white"/>
<path d="M39.9776 11.459H38.4448V12.9917H39.9776V11.459Z" fill="white"/>
<path d="M40.7437 14.5249H39.2109V16.0577H40.7437V14.5249Z" fill="white"/>
<path d="M41.5098 17.5903H39.9771V19.1231H41.5098V17.5903Z" fill="white"/>
<path d="M42.2759 20.6558H40.7432V22.1885H42.2759V20.6558Z" fill="white"/>
</svg>
