<svg width="47" height="48" viewBox="0 0 47 48" fill="none" xmlns="http://www.w3.org/2000/svg">
<g clip-path="url(#clip0_47_2222)">
<path d="M41.4349 36.8746C44.5313 33.7782 42.8396 27.0662 37.6563 21.883C32.4731 16.6997 25.7611 15.008 22.6647 18.1044C19.5682 21.2008 21.26 27.9128 26.4432 33.0961C31.6265 38.2793 38.3385 39.971 41.4349 36.8746Z" stroke="white" stroke-width="1.56204" stroke-miterlimit="10"/>
<path d="M22.665 18.104L18.7599 22.0091C15.664 25.1059 17.3557 31.818 22.5385 37.0016C27.7214 42.1853 34.4343 43.8769 37.531 40.7802L41.4361 36.8751" stroke="white" stroke-width="1.56204" stroke-miterlimit="10"/>
<path d="M3.93359 31.3945V36.0807C3.93359 39.1001 8.82904 41.5478 14.8679 41.5478C17.4726 41.5478 19.8641 41.0925 21.7425 40.3325" stroke="white" stroke-width="1.56204" stroke-miterlimit="10"/>
<path d="M24.5698 20.0088L26.8317 22.2706" stroke="white" stroke-width="1.56204" stroke-miterlimit="10"/>
<path d="M37.269 32.708L39.5434 34.9823" stroke="white" stroke-width="1.56204" stroke-miterlimit="10"/>
<path d="M18.648 36.5262C17.4695 36.7433 16.1964 36.862 14.8679 36.862C8.82904 36.862 3.93359 34.4143 3.93359 31.3949C3.93359 28.3755 8.82904 25.9277 14.8679 25.9277" stroke="white" stroke-width="1.56204" stroke-miterlimit="10"/>
<path d="M32.1686 32.5694C32.8121 33.2864 33.7454 33.7371 34.785 33.7371C36.7258 33.7371 38.2996 32.1633 38.2996 30.2225C38.2996 28.2816 36.7258 26.7079 34.785 26.7079C34.3539 26.7079 33.9407 26.7852 33.5588 26.9273L30.544 28.0497C30.1621 28.1926 29.7489 28.2699 29.3178 28.2699C27.377 28.2699 25.8032 26.6962 25.8032 24.7553C25.8032 22.8145 27.377 21.2407 29.3178 21.2407C30.3574 21.2407 31.2907 21.6914 31.9342 22.4084" stroke="white" stroke-width="1.57181" stroke-miterlimit="10"/>
<path d="M12.9953 7.01474L12.2041 5.00049" stroke="white" stroke-width="1.56204" stroke-miterlimit="10"/>
<path d="M15.1486 12.492L13.7646 8.97119" stroke="white" stroke-width="1.56204" stroke-miterlimit="10"/>
<path d="M8.30344 17.0183L2.68945 11.4043" stroke="white" stroke-width="1.56204" stroke-miterlimit="10"/>
<path d="M23.46 11.0876V3.27734" stroke="white" stroke-width="1.56204" stroke-miterlimit="10"/>
<path d="M33.9253 7.01474L34.7165 5.00049" stroke="white" stroke-width="1.56204" stroke-miterlimit="10"/>
<path d="M31.771 12.492L33.155 8.97119" stroke="white" stroke-width="1.56204" stroke-miterlimit="10"/>
<path d="M38.6162 17.0183L44.2302 11.4043" stroke="white" stroke-width="1.56204" stroke-miterlimit="10"/>
</g>
<defs>
<clipPath id="clip0_47_2222">
<rect width="46.8613" height="46.8613" fill="white" transform="translate(0.0297852 0.15332)"/>
</clipPath>
</defs>
</svg>
