<svg width="11" height="11" viewBox="0 0 11 11" fill="#fff" xmlns="http://www.w3.org/2000/svg">
<path d="M5.85766 1.07606C7.23085 1.07606 7.3935 1.08131 7.93584 1.10605C8.43726 1.12894 8.70955 1.2127 8.89079 1.28313C9.11417 1.36557 9.31623 1.49703 9.48211 1.66784C9.65292 1.83372 9.78438 2.03578 9.86682 2.25916C9.93725 2.44038 10.021 2.71269 10.0439 3.21411C10.0686 3.75641 10.0739 3.91906 10.0739 5.29229C10.0739 6.66553 10.0686 6.82813 10.0439 7.37048C10.021 7.8719 9.93723 8.14418 9.86682 8.32542C9.78126 8.54722 9.65022 8.74865 9.48212 8.91675C9.31402 9.08485 9.11259 9.2159 8.89079 9.30146C8.70957 9.37188 8.43726 9.45567 7.93584 9.47853C7.39364 9.50327 7.231 9.50852 5.85766 9.50852C4.48432 9.50852 4.32174 9.50327 3.77947 9.47853C3.27806 9.45565 3.00577 9.37186 2.82453 9.30146C2.60115 9.21901 2.39909 9.08755 2.23321 8.91675C2.0624 8.75086 1.93094 8.5488 1.8485 8.32542C1.77807 8.1442 1.69429 7.8719 1.67142 7.37048C1.64668 6.82819 1.64143 6.66553 1.64143 5.29229C1.64143 3.91906 1.64668 3.75646 1.67142 3.21411C1.69431 2.71269 1.77807 2.4404 1.8485 2.25916C1.93095 2.03577 2.06242 1.83371 2.23325 1.66782C2.39913 1.49701 2.60119 1.36555 2.82457 1.28311C3.00579 1.21268 3.2781 1.1289 3.77951 1.10603C4.32182 1.08129 4.48447 1.07604 5.8577 1.07604L5.85766 1.07606ZM5.8577 0.149414C4.46099 0.149414 4.28579 0.155334 3.73734 0.180362C3.18993 0.20535 2.8161 0.292274 2.48898 0.419415C2.14582 0.548549 1.83497 0.750981 1.57809 1.0126C1.31641 1.26946 1.11392 1.58032 0.984742 1.92349C0.857704 2.25063 0.770779 2.62446 0.745894 3.17187C0.720764 3.72032 0.714844 3.89552 0.714844 5.29223C0.714844 6.68894 0.720764 6.86414 0.745894 7.41259C0.770881 7.96 0.857806 8.33383 0.984947 8.66095C1.11408 9.00411 1.31651 9.31496 1.57813 9.57184C1.83501 9.83346 2.14586 10.0359 2.48902 10.165C2.81616 10.2922 3.18999 10.3791 3.73738 10.4041C4.28591 10.4291 4.46105 10.435 5.85774 10.435C7.25443 10.435 7.42965 10.4291 7.9781 10.4041C8.52552 10.3791 8.89934 10.2922 9.22646 10.165C9.56809 10.0329 9.87835 9.83085 10.1374 9.57185C10.3964 9.31284 10.5984 9.00258 10.7305 8.66095C10.8577 8.33381 10.9446 7.95998 10.9696 7.41259C10.9946 6.86406 11.0005 6.68892 11.0005 5.29223C11.0005 3.89554 10.9946 3.72032 10.9696 3.17187C10.9446 2.62446 10.8577 2.25063 10.7305 1.92351C10.6014 1.58035 10.399 1.2695 10.1374 1.01262C9.88047 0.75095 9.56959 0.548474 9.2264 0.419313C8.89926 0.292274 8.52543 0.20535 7.97802 0.180464C7.42957 0.155334 7.25437 0.149414 5.85766 0.149414H5.8577Z" fill="black"/>
<path d="M5.85777 2.65137C5.33545 2.65137 4.82485 2.80625 4.39056 3.09644C3.95626 3.38663 3.61777 3.79908 3.41789 4.28164C3.218 4.76421 3.1657 5.2952 3.2676 5.80749C3.3695 6.31978 3.62103 6.79034 3.99036 7.15968C4.3597 7.52902 4.83027 7.78054 5.34255 7.88244C5.85484 7.98434 6.38584 7.93204 6.8684 7.73216C7.35096 7.53227 7.76342 7.19378 8.0536 6.75949C8.34379 6.32519 8.49868 5.8146 8.49868 5.29228C8.49868 4.59186 8.22044 3.92014 7.72517 3.42487C7.22991 2.9296 6.55818 2.65137 5.85777 2.65137ZM5.85777 7.00653C5.51872 7.00653 5.18729 6.90599 4.90538 6.71762C4.62348 6.52925 4.40376 6.26152 4.27401 5.94828C4.14427 5.63504 4.11032 5.29036 4.17647 4.95783C4.24262 4.6253 4.40589 4.31985 4.64563 4.0801C4.88538 3.84036 5.19083 3.6771 5.52336 3.61095C5.85589 3.54481 6.20057 3.57876 6.51381 3.70851C6.82705 3.83826 7.09478 4.05798 7.28314 4.33989C7.47151 4.62179 7.57205 4.95323 7.57205 5.29228C7.57204 5.74693 7.39143 6.18295 7.06994 6.50444C6.74845 6.82592 6.31242 7.00653 5.85777 7.00653Z" fill="black"/>
<path d="M8.60346 3.16394C8.94429 3.16394 9.22058 2.88764 9.22058 2.54681C9.22058 2.20598 8.94429 1.92969 8.60346 1.92969C8.26263 1.92969 7.98633 2.20598 7.98633 2.54681C7.98633 2.88764 8.26263 3.16394 8.60346 3.16394Z" fill="black"/>
</svg>
