<svg width="128" height="25" viewBox="0 0 128 25" fill="none" xmlns="http://www.w3.org/2000/svg">
<g clip-path="url(#clip0_31_226)">
<path d="M40.2866 23.2197C40.4771 23.329 40.6741 23.4266 40.8764 23.5119C40.6925 23.4308 40.5085 23.3442 40.3353 23.2468L40.2866 23.2197Z" fill="white"/>
<path d="M40.1138 23.1116L40.2869 23.2252L40.1138 23.1116Z" fill="white"/>
<path d="M30.0866 8.55518C30.1191 3.39825 33.5823 -0.0324832 38.7446 -1.5674e-05C42.5325 -1.5674e-05 45.6439 2.61903 46.5909 6.49349H43.4091C43.0812 5.4949 42.4584 4.61911 41.6228 3.98155C40.7873 3.344 39.7781 2.9746 38.7284 2.92206C35.4816 2.92206 33.3171 5.18396 33.3171 8.60388C33.3171 12.0238 35.4329 14.329 38.6634 14.3506C39.7937 14.3355 40.8866 13.9434 41.7689 13.2367C42.6511 12.5299 43.2721 11.5489 43.5336 10.4491H46.645C45.8279 14.54 42.6299 17.2511 38.6526 17.224C33.4849 17.1591 30.0595 13.7121 30.0866 8.55518Z" fill="black"/>
<path d="M47.6839 4.87014H50.5789V6.2933C50.9002 5.80705 51.3341 5.40554 51.8438 5.12291C52.3535 4.84028 52.9238 4.68489 53.5064 4.66992C53.9436 4.67078 54.3767 4.75336 54.7835 4.91342V7.13204H53.7932C51.8668 7.13204 50.5789 8.21429 50.5735 9.83766L50.5302 16.9697H47.6406L47.6839 4.87014Z" fill="black"/>
<path d="M54.3561 10.9363C54.3561 7.14841 56.9914 4.58347 60.9199 4.60512C64.8485 4.62676 67.4134 7.19712 67.4134 11.0066V11.5478L67.1753 11.7859L57.289 11.7317C57.376 12.6142 57.7926 13.4314 58.4556 14.0202C59.1186 14.609 59.9793 14.9261 60.8658 14.9082C61.5505 14.9176 62.2241 14.7344 62.8096 14.3794C63.3952 14.0244 63.8692 13.512 64.1775 12.9006H67.1158C66.6905 14.2151 65.8492 15.3556 64.7188 16.1502C63.5885 16.9447 62.2305 17.3501 60.8496 17.3053C56.921 17.3107 54.3344 14.7458 54.3561 10.9363ZM64.2966 9.37785C64.0374 8.68783 63.575 8.0927 62.9704 7.67109C62.3658 7.24949 61.6475 7.02126 60.9105 7.01657C60.1734 7.01188 59.4523 7.23094 58.8424 7.64482C58.2325 8.0587 57.7625 8.64791 57.4946 9.33456L64.2966 9.37785Z" fill="black"/>
<path d="M68.1927 11.0119C68.1927 7.22402 70.7847 4.66449 74.5888 4.68613C76.0881 4.70674 77.5205 5.31034 78.5823 6.36903L78.6148 0.562744H81.5098L81.4178 17.0996H78.5228V15.7738C77.4461 16.8126 76.0092 17.3944 74.513 17.3972C70.7089 17.3918 68.1602 14.8214 68.1927 11.0119ZM78.5552 11.0714C78.5552 8.78245 77.0834 7.25648 74.8648 7.24025C72.6462 7.22401 71.0769 8.73917 71.0769 11.0281C71.0769 13.3171 72.5542 14.8431 74.8161 14.8593C77.078 14.8755 78.5444 13.3712 78.5552 11.0714Z" fill="black"/>
<path d="M83.7287 0.589844H86.6183V3.24136H83.7233L83.7287 0.589844ZM83.7017 5.07578H86.5967L86.5263 17.1591H83.6367L83.7017 5.07578Z" fill="black"/>
<path d="M89.7728 14.0747L89.8107 7.51625H87.8843V5.10825H89.8161V0.622314H92.7111L92.6841 5.10825H95.7252V7.52166H92.6895L92.6516 14.0801C92.6463 14.2208 92.6711 14.3609 92.7245 14.4911C92.7779 14.6214 92.8586 14.7387 92.9612 14.8351C93.0638 14.9315 93.1858 15.0048 93.3191 15.05C93.4524 15.0953 93.5938 15.1114 93.7338 15.0974H95.828V17.1753C95.1698 17.4074 94.4748 17.5175 93.7771 17.5C91.3475 17.5054 89.762 16.1256 89.7728 14.0747Z" fill="black"/>
<path d="M97.6841 0.670898H100.579V3.32241H97.6895L97.6841 0.670898ZM97.6841 5.15142H100.574L100.509 17.2023H97.6138L97.6841 5.15142Z" fill="black"/>
<path d="M102.554 0.697998H105.449L105.357 17.2348H102.462L102.554 0.697998Z" fill="black"/>
<path d="M107.662 0.725098H110.552V3.37661H107.662V0.725098ZM107.635 5.21103H110.53L110.46 17.2619H107.565L107.635 5.21103Z" fill="black"/>
<path d="M111.753 11.261C111.753 7.47312 114.296 4.90818 118.057 4.92982C119.524 4.95049 120.923 5.54721 121.953 6.59108V5.28697H124.848L124.778 17.3432H121.888V16.0391C120.848 17.0725 119.443 17.6556 117.976 17.6625C114.226 17.6355 111.731 15.0651 111.753 11.261ZM121.926 11.3151C121.926 9.02615 120.503 7.50017 118.333 7.48394C116.163 7.4677 114.659 8.98285 114.648 11.2718C114.637 13.5608 116.093 15.0868 118.29 15.0976C120.487 15.1084 121.91 13.6041 121.926 11.3151Z" fill="black"/>
<path d="M125.406 2.15917C125.404 1.92625 125.471 1.69795 125.599 1.50331C125.727 1.30867 125.91 1.15648 126.124 1.0661C126.339 0.975726 126.576 0.951252 126.804 0.995771C127.033 1.04029 127.243 1.1518 127.408 1.31612C127.573 1.48045 127.686 1.69015 127.732 1.91858C127.777 2.14701 127.754 2.38383 127.664 2.59893C127.575 2.81404 127.424 2.99769 127.23 3.12655C127.036 3.25541 126.808 3.32365 126.575 3.32259C126.421 3.32402 126.269 3.29495 126.127 3.23706C125.985 3.17917 125.856 3.09362 125.747 2.98538C125.638 2.87713 125.552 2.74833 125.493 2.6065C125.435 2.46466 125.405 2.31261 125.406 2.15917ZM127.408 2.15917C127.405 1.99638 127.354 1.83815 127.261 1.70426C127.168 1.57038 127.038 1.46679 126.887 1.40645C126.736 1.34611 126.57 1.3317 126.411 1.36502C126.251 1.39834 126.105 1.47792 125.991 1.59379C125.877 1.70966 125.799 1.85669 125.768 2.01648C125.736 2.17626 125.753 2.34172 125.815 2.49216C125.878 2.64259 125.983 2.77131 126.118 2.86223C126.253 2.95315 126.412 3.00223 126.575 3.00333C126.795 3.00191 127.006 2.91366 127.162 2.75768C127.318 2.60171 127.407 2.39056 127.408 2.16999V2.15917ZM126.126 1.591H126.667C126.749 1.5882 126.831 1.61383 126.897 1.66364C126.963 1.71345 127.01 1.78444 127.03 1.86476C127.051 1.94509 127.043 2.02991 127.008 2.10514C126.973 2.18036 126.914 2.24145 126.84 2.27822L127.11 2.70571H126.753L126.504 2.30527H126.456V2.70571H126.131L126.126 1.591ZM126.667 2.03471C126.688 2.03471 126.709 2.02617 126.724 2.01094C126.739 1.99572 126.748 1.97507 126.748 1.95354C126.748 1.93201 126.739 1.91138 126.724 1.89616C126.709 1.88093 126.688 1.87238 126.667 1.87238H126.445V2.02931L126.667 2.03471Z" fill="black"/>
<path d="M18.9183 0.0107126H18.4908L18.0146 0.0431789C17.8793 0.0431789 17.7548 0.0756444 17.625 0.0918782C17.3735 0.126495 17.1242 0.175284 16.8782 0.237993C16.7646 0.237993 16.6564 0.292102 16.5481 0.319158L16.2289 0.416557C15.5957 0.619681 14.9876 0.893797 14.4161 1.23366L14.1401 1.40141L13.8696 1.58539C12.5474 0.662273 10.9974 0.119295 9.38816 0.0154851C7.77894 -0.0883252 6.17205 0.251006 4.7422 0.996589C3.31234 1.74217 2.11424 2.86547 1.27816 4.24437C0.442074 5.62326 0 7.20496 0 8.81753C0 10.4301 0.442074 12.0118 1.27816 13.3907C2.11424 14.7696 3.31234 15.8929 4.7422 16.6385C6.17205 17.3841 7.77894 17.7234 9.38816 17.6196C10.9974 17.5158 12.5474 16.9728 13.8696 16.0497C14.0481 16.1796 14.2321 16.2932 14.4107 16.4068C14.5893 16.5204 14.7354 16.5908 14.9031 16.6774C14.961 16.7144 15.0227 16.7453 15.0871 16.7694C15.2548 16.8505 15.4172 16.9263 15.5903 16.9912C15.7906 17.0724 15.9962 17.1428 16.2072 17.2131L16.5265 17.3105L16.8566 17.3917C17.1019 17.453 17.3508 17.5017 17.6033 17.5378L17.9929 17.5865L18.4691 17.6189H18.8966C20.073 17.6481 21.2432 17.4416 22.3385 17.0115C23.4338 16.5815 24.432 15.9367 25.2743 15.115C26.1166 14.2933 26.7859 13.3114 27.243 12.2271C27.7 11.1428 27.9354 9.97798 27.9354 8.80129C27.9354 7.6246 27.7 6.45981 27.243 5.3755C26.7859 4.29119 26.1166 3.30928 25.2743 2.48761C24.432 1.66593 23.4338 1.02109 22.3385 0.591059C21.2432 0.161031 20.073 -0.0454801 18.8966 -0.016337L18.9183 0.0107126ZM8.82086 14.1179C8.01221 14.1184 7.21421 13.9336 6.4881 13.5776C5.762 13.2217 5.12712 12.7041 4.63221 12.0646C4.1373 11.4251 3.79552 10.6807 3.63312 9.88848C3.47072 9.09631 3.49201 8.27745 3.69537 7.49478C3.89872 6.71212 4.27873 5.98647 4.80621 5.37355C5.33369 4.76062 5.99462 4.27673 6.73824 3.95902C7.48186 3.64131 8.2884 3.49823 9.09593 3.54078C9.90346 3.58332 10.6905 3.81035 11.3966 4.20444C11.2938 4.37218 11.1964 4.54535 11.1044 4.71851C11.0079 4.89394 10.9212 5.07459 10.8447 5.25964C10.7635 5.4328 10.6932 5.61137 10.6228 5.80076C10.4858 6.17901 10.3737 6.56584 10.2873 6.95876C10.244 7.14816 10.2116 7.34297 10.1845 7.53777C10.1815 7.56836 10.1815 7.59918 10.1845 7.62977C10.16 7.78391 10.1437 7.93925 10.1358 8.09513C10.1304 8.14187 10.1304 8.18908 10.1358 8.23583C10.1358 8.42522 10.1358 8.62003 10.1358 8.80942C10.1358 8.99881 10.1358 9.19902 10.1358 9.39383C10.1331 9.43527 10.1331 9.47685 10.1358 9.51829C10.1358 9.69686 10.1737 9.88085 10.1953 10.0594C10.217 10.238 10.2603 10.4653 10.3036 10.6655C10.3914 11.058 10.5034 11.4448 10.639 11.8235C10.8488 12.3725 11.1078 12.9013 11.4129 13.4036C10.6255 13.8627 9.73222 14.1088 8.82086 14.1179ZM22.652 12.5594C21.9837 13.2297 21.1488 13.7098 20.2332 13.9501C19.8011 14.0566 19.3579 14.1111 18.9129 14.1124H18.5774C18.4583 14.1124 18.3393 14.1124 18.2256 14.08L17.8901 14.0259L17.56 13.9501C17.4518 13.9231 17.349 13.8906 17.2408 13.8527L16.9269 13.7445C16.7072 13.6504 16.4939 13.5419 16.2884 13.4198L16.099 13.3062C15.9111 13.1891 15.7304 13.0608 15.5579 12.922L15.52 12.8841C15.3955 12.7759 15.2711 12.6676 15.1574 12.5486C15.0438 12.4296 14.941 12.3267 14.8436 12.2023C14.7349 12.0729 14.6337 11.9374 14.5406 11.7964C14.4995 11.7371 14.4616 11.6757 14.4269 11.6124C14.4064 11.5955 14.3914 11.5729 14.3836 11.5475C14.3023 11.4127 14.2282 11.2736 14.1618 11.1308C14.0763 10.9825 14.0091 10.8245 13.9616 10.6601C13.9253 10.5848 13.8946 10.5071 13.8696 10.4274C13.8458 10.3513 13.8278 10.2735 13.8155 10.1947C13.7307 9.88506 13.6764 9.56791 13.6531 9.24773C13.6531 9.11245 13.6531 8.98258 13.6531 8.8473C13.6531 8.71743 13.6531 8.59296 13.6531 8.46309C13.6778 8.14205 13.7285 7.82356 13.8046 7.51072C13.8046 7.42414 13.8479 7.34838 13.8696 7.27262C13.8955 7.19505 13.9263 7.11915 13.9616 7.04534C14.009 6.87919 14.0763 6.71932 14.1618 6.56915C14.2282 6.41292 14.3078 6.26267 14.3999 6.12002C14.4835 5.97159 14.5795 5.8304 14.6867 5.69795C14.7408 5.62219 14.8057 5.54642 14.8652 5.47067C14.9519 5.35986 15.0459 5.25502 15.1466 5.15682L15.1845 5.11894C15.2899 5.01101 15.4019 4.9098 15.52 4.81591L15.5579 4.77803C15.6769 4.68604 15.796 4.59404 15.9258 4.50746C15.9361 4.49552 15.9491 4.48624 15.9637 4.48041C16.0882 4.39925 16.2181 4.31808 16.3479 4.24774C16.5107 4.15009 16.6808 4.06507 16.8566 3.99341L17.1001 3.89599L17.349 3.81482L17.5655 3.74989L17.8955 3.67413L18.231 3.62003C18.3447 3.62003 18.4637 3.59297 18.5828 3.58756H18.9183C19.962 3.58785 20.9822 3.89736 21.8501 4.47703C22.718 5.0567 23.3947 5.88053 23.7948 6.8445C24.1948 7.80848 24.3003 8.86938 24.0979 9.89326C23.8955 10.9171 23.3942 11.8581 22.6574 12.5973L22.652 12.5594Z" fill="url(#paint0_linear_31_226)"/>
<path d="M18.9182 0.0107989H18.4907L18.0145 0.0432651C17.8792 0.0432651 17.7548 0.0757306 17.6249 0.0919644C17.3734 0.126581 17.1241 0.175371 16.8782 0.238079C16.7645 0.238079 16.6563 0.292188 16.5481 0.319244L16.2288 0.416643C15.5957 0.619768 14.9875 0.893883 14.416 1.23375L14.1401 1.4015L13.8695 1.58548C12.8777 2.27744 12.0379 3.16507 11.402 4.19371C11.2031 4.53565 11.0225 4.88786 10.8608 5.24889C10.7797 5.42205 10.7093 5.60062 10.639 5.79002C10.5019 6.16827 10.3899 6.55511 10.3035 6.94803C10.2602 7.13743 10.2277 7.33224 10.2007 7.52704C10.1977 7.55763 10.1977 7.58843 10.2007 7.61902C10.1761 7.77316 10.1599 7.92852 10.152 8.0844C10.1466 8.13114 10.1466 8.17834 10.152 8.22508C10.152 8.41447 10.152 8.60928 10.152 8.79867C10.152 8.98807 10.152 9.18829 10.152 9.3831C10.1493 9.42454 10.1493 9.4661 10.152 9.50755C10.152 9.68612 10.1899 9.8701 10.2115 10.0487C10.2331 10.2272 10.2764 10.4545 10.3197 10.6547C10.4025 11.0486 10.5146 11.4357 10.6552 11.8127C10.8596 12.3648 11.117 12.8958 11.4236 13.3982C12.0559 14.4294 12.8941 15.3192 13.8857 16.0119C14.0697 16.1363 14.2537 16.2608 14.4269 16.3636C14.6 16.4664 14.7515 16.5476 14.9193 16.6342C14.9772 16.6712 15.0389 16.7021 15.1033 16.7262C15.271 16.8073 15.4334 16.8831 15.6065 16.948C15.8067 17.0292 16.0124 17.0995 16.2234 17.1699L16.5427 17.2673L16.8728 17.3485C17.1181 17.4098 17.367 17.4585 17.6195 17.4946L18.0091 17.5433L18.4853 17.5757H18.9128C20.0891 17.6049 21.2594 17.3984 22.3547 16.9683C23.45 16.5383 24.4482 15.8935 25.2905 15.0718C26.1327 14.2501 26.8021 13.2682 27.2591 12.1839C27.7162 11.0996 27.9516 9.93479 27.9516 8.7581C27.9516 7.58141 27.7162 6.41661 27.2591 5.3323C26.8021 4.24799 26.1327 3.26609 25.2905 2.44441C24.4482 1.62273 23.45 0.97789 22.3547 0.547862C21.2594 0.117834 20.0891 -0.0886931 18.9128 -0.0595501L18.9182 0.0107989ZM22.6574 12.5595C21.9891 13.2298 21.1541 13.7099 20.2386 13.9502C19.8065 14.0567 19.3632 14.1112 18.9182 14.1125H18.5827C18.4637 14.1125 18.3446 14.1125 18.231 14.0801L17.8955 14.0259L17.5654 13.9502C17.4572 13.9231 17.3544 13.8907 17.2461 13.8528L16.9323 13.7446C16.7125 13.6505 16.4992 13.542 16.2937 13.4199L16.1044 13.3063C15.9164 13.1892 15.7357 13.0609 15.5632 12.9221L15.5254 12.8842C15.4009 12.776 15.2764 12.6677 15.1628 12.5487C15.0492 12.4296 14.9463 12.3268 14.8489 12.2024C14.7402 12.073 14.639 11.9375 14.5459 11.7965C14.5049 11.7372 14.467 11.6758 14.4323 11.6125C14.4118 11.5956 14.3967 11.573 14.389 11.5476C14.3078 11.4123 14.2375 11.277 14.1671 11.1309C14.0894 10.9789 14.0224 10.8216 13.9669 10.6601C13.9069 10.5088 13.858 10.3533 13.8208 10.1948C13.7361 9.88515 13.6817 9.56799 13.6585 9.24782C13.6585 9.11253 13.6585 8.98267 13.6585 8.84739C13.6585 8.71752 13.6585 8.59305 13.6585 8.46318C13.6831 8.14214 13.7338 7.82365 13.81 7.51081C13.8587 7.34847 13.9074 7.19695 13.9669 7.04543C14.0214 6.88184 14.0884 6.72265 14.1671 6.56924C14.3149 6.25981 14.4964 5.96764 14.7082 5.69803C14.7624 5.62228 14.8273 5.54651 14.8868 5.47075C14.9735 5.35995 15.0675 5.2551 15.1682 5.15691L15.2061 5.11903C15.3115 5.01109 15.4235 4.90989 15.5416 4.816L15.5795 4.77811C15.6985 4.68612 15.8176 4.59413 15.9474 4.50755C15.9577 4.4956 15.9707 4.48633 15.9853 4.4805C16.1098 4.39933 16.2396 4.31817 16.3695 4.24782C16.5323 4.15018 16.7024 4.06516 16.8782 3.99349L17.1217 3.89608L17.3706 3.81491L17.587 3.74998L17.9171 3.67421L18.2526 3.62011C18.3663 3.62011 18.4853 3.59306 18.6044 3.58765H18.9399C19.9835 3.58794 21.0038 3.89745 21.8717 4.47712C22.7396 5.05679 23.4163 5.88061 23.8164 6.84459C24.2164 7.80856 24.3219 8.86947 24.1195 9.89334C23.9171 10.9172 23.4158 11.8582 22.679 12.5974L22.6574 12.5595Z" fill="url(#paint1_linear_31_226)"/>
<path d="M74.5884 4.71313C74.7609 4.85196 74.9416 4.98025 75.1295 5.09733C74.9416 4.98025 74.7609 4.85196 74.5884 4.71313Z" fill="white"/>
<path d="M40.1513 23.6147C39.4834 24.2846 38.6481 24.763 37.7324 25C38.6476 24.7617 39.4826 24.2835 40.1513 23.6147Z" fill="white"/>
</g>
<defs>
<linearGradient id="paint0_linear_31_226" x1="0.000518335" y1="8.82565" x2="16.2451" y2="8.82565" gradientUnits="userSpaceOnUse">
<stop stop-color="#3A90EF"/>
<stop offset="1" stop-color="#0027A5"/>
</linearGradient>
<linearGradient id="paint1_linear_31_226" x1="10.0924" y1="8.82573" x2="27.7331" y2="8.82573" gradientUnits="userSpaceOnUse">
<stop stop-color="#0080FF"/>
<stop offset="1" stop-color="#003DE8"/>
</linearGradient>
<clipPath id="clip0_31_226">
<rect width="127.754" height="25" fill="white"/>
</clipPath>
</defs>
</svg>
