<svg width="64" height="64" viewBox="0 0 64 64" fill="none" xmlns="http://www.w3.org/2000/svg">
<path d="M42.6863 23.5017C42.1926 23.008 41.528 22.7295 40.8318 22.7295C40.1356 22.7295 39.4709 23.0017 38.9773 23.5017L28.0081 34.4139L24.4952 30.8757C23.4824 29.863 21.8177 29.8503 20.7924 30.8567C19.7606 31.8631 19.748 33.5278 20.7607 34.5659L26.1282 39.9713C26.6219 40.465 27.2865 40.7436 27.9891 40.7436C28.6854 40.7436 29.3436 40.4714 29.8374 39.9777L42.6742 27.2172C43.687 26.2045 43.6996 24.5397 42.6932 23.5144L42.6863 23.5017Z" fill="#0049FF"/>
<path d="M60.9668 19.394C59.3655 15.6152 57.0741 12.2225 54.1625 9.30456C51.2446 6.39297 47.852 4.10164 44.0731 2.50024C40.1614 0.841902 36.0092 0 31.7305 0C14.235 0.00632954 0 14.242 0 31.7363C0 49.2306 14.235 63.4667 31.7305 63.4667C49.2259 63.4667 63.461 49.2317 63.461 31.7363C63.461 27.4574 62.6254 23.3052 60.9671 19.3936L60.9668 19.394ZM31.7306 58.2194C17.1287 58.2194 5.24783 46.3385 5.24783 31.7366C5.24783 17.1347 17.1287 5.25384 31.7306 5.25384C46.3325 5.25384 58.2134 17.1347 58.2134 31.7366C58.2134 46.3385 46.3325 58.2194 31.7306 58.2194V58.2194Z" fill="#0049FF"/>
</svg>
