<svg width="46" height="47" viewBox="0 0 46 47" fill="none" xmlns="http://www.w3.org/2000/svg">
<path d="M22.9917 34.7495V38.5814" stroke="#0049FF" stroke-width="1.53276" stroke-miterlimit="10"/>
<path d="M38.3192 23.2539H34.4873" stroke="#0049FF" stroke-width="1.53276" stroke-miterlimit="10"/>
<path d="M7.66406 23.2539H11.496" stroke="#0049FF" stroke-width="1.53276" stroke-miterlimit="10"/>
<path d="M22.9917 10.2251V23.2536L29.5956 29.8575" stroke="#0049FF" stroke-width="1.53276" stroke-miterlimit="10"/>
<path d="M6.89751 39.3477H5.36475V40.8804H6.89751V39.3477Z" fill="#0049FF"/>
<path d="M42.9175 8.69238H41.3848V10.2251H42.9175V8.69238Z" fill="#0049FF"/>
<path d="M40.6182 5.62695H39.0854V7.15972H40.6182V5.62695Z" fill="#0049FF"/>
<path d="M37.5528 3.32764H36.02V4.8604H37.5528V3.32764Z" fill="#0049FF"/>
<path d="M4.59819 36.2822H3.06543V37.815H4.59819V36.2822Z" fill="#0049FF"/>
<path d="M9.96294 41.6465H8.43018V43.1792H9.96294V41.6465Z" fill="#0049FF"/>
<path d="M22.9918 41.6467C33.1501 41.6467 41.385 33.4118 41.385 23.2535C41.385 13.0953 33.1501 4.86035 22.9918 4.86035C12.8335 4.86035 4.59863 13.0953 4.59863 23.2535C4.59863 33.4118 12.8335 41.6467 22.9918 41.6467Z" stroke="#0049FF" stroke-width="1.53276" stroke-miterlimit="10"/>
<path d="M8.97317 6.00635C7.05721 7.56593 5.40566 9.43821 4.09668 11.5458" stroke="#0049FF" stroke-width="1.53276" stroke-miterlimit="10"/>
<path d="M14.5616 2.68311C13.4956 3.12071 12.4717 3.63802 11.4961 4.2289" stroke="#0049FF" stroke-width="1.53276" stroke-miterlimit="10"/>
<path d="M37.0103 40.5008C38.9262 38.9412 40.5778 37.069 41.8867 34.9614" stroke="#0049FF" stroke-width="1.53276" stroke-miterlimit="10"/>
<path d="M31.4219 43.8241C32.4879 43.3865 33.5118 42.8692 34.4874 42.2783" stroke="#0049FF" stroke-width="1.53276" stroke-miterlimit="10"/>
</svg>
